<?xml version="1.0" encoding="utf-8"?>
<!-- Generator: Adobe Illustrator 16.0.0, SVG Export Plug-In . SVG Version: 6.00 Build 0)  -->
<!DOCTYPE svg PUBLIC "-//W3C//DTD SVG 1.1//EN" "http://www.w3.org/Graphics/SVG/1.1/DTD/svg11.dtd">
<svg version="1.1" id="Layer_1" xmlns="http://www.w3.org/2000/svg" xmlns:xlink="http://www.w3.org/1999/xlink" x="0px" y="0px"
	 width="180px" height="64.729px" viewBox="0 0 180 64.729" enable-background="new 0 0 180 64.729" xml:space="preserve">
<g>
	<rect x="24.404" y="44.951" fill="#FFFFFF" width="3.046" height="14.501"/>
	<rect x="7.964" y="44.951" fill="#FFFFFF" width="2.948" height="14.501"/>
	<rect x="11.926" y="44.951" fill="#FFFFFF" width="3.144" height="14.501"/>
	<rect x="16.087" y="44.951" fill="#FFFFFF" width="3.143" height="14.501"/>
	<rect x="20.245" y="44.951" fill="#FFFFFF" width="3.144" height="14.501"/>
	<polygon fill="#FFFFFF" points="26.141,43.927 9.206,43.927 17.898,38.578 	"/>
	<polygon fill="#FFFFFF" points="7.255,43.927 0,43.927 0,38.523 16.038,38.523 	"/>
	<polygon fill="#FFFFFF" points="19.691,38.523 35.316,38.523 35.316,43.927 28.018,43.927 	"/>
	<path fill="#FFFFFF" d="M33.08,37.499H2.237c3.02-5.449,8.793-9.13,15.42-9.13C24.284,28.369,30.059,32.05,33.08,37.499z"/>
	<path fill="#FFFFFF" d="M5.033,58.597l-0.177,0.542l0.46-0.337l0.461,0.337l-0.176-0.542l0.461-0.334H5.493l-0.177-0.541
		l-0.175,0.541H4.572L5.033,58.597z M2.519,55.246l-0.176,0.543l0.46-0.335l0.46,0.335l-0.175-0.543l0.46-0.334h-0.57l-0.176-0.541
		l-0.176,0.541h-0.57L2.519,55.246z M0.79,51.156l-0.177,0.543l0.46-0.336l0.461,0.336l-0.176-0.543l0.46-0.334H1.25l-0.177-0.541
		l-0.175,0.541h-0.57L0.79,51.156z M6.949,59.452H0V46.504l0.232,0.168l-0.176,0.541l0.46-0.334l0.459,0.334L0.8,46.672l0.461-0.334
		h-0.57l-0.175-0.541L0.34,46.338H0v-1.387h6.949V59.452z"/>
	<rect y="60.477" fill="#FFFFFF" width="6.949" height="3.85"/>
	<rect x="28.463" y="60.477" fill="#FFFFFF" width="6.853" height="3.85"/>
	<path fill="#FFFFFF" d="M22.373,63.219l0.462-0.334h-0.57l-0.177-0.542l-0.175,0.542h-0.569l0.46,0.334l-0.176,0.541l0.46-0.334
		l0.461,0.334L22.373,63.219z M26.443,61.578l0.461-0.334h-0.569l-0.175-0.542l-0.177,0.542h-0.569l0.461,0.334l-0.177,0.541
		l0.461-0.334l0.46,0.334L26.443,61.578z M12.944,63.219l-0.176,0.541l0.461-0.334l0.46,0.334l-0.176-0.541l0.46-0.334h-0.569
		l-0.175-0.542l-0.177,0.542h-0.57L12.944,63.219z M8.873,61.578l-0.176,0.541l0.459-0.334l0.461,0.334L9.44,61.578l0.461-0.334
		h-0.57l-0.176-0.542L8.98,61.244H8.412L8.873,61.578z M27.45,60.477v3.85h-9.323l-0.162-0.496l0.46-0.335h-0.569l-0.176-0.542
		l-0.176,0.542h-0.57l0.462,0.335l-0.162,0.496h-9.27v-3.85H27.45z M18.08,64.326h-0.797l0.399-0.289L18.08,64.326z"/>
	<path fill="#FFFFFF" d="M30.284,58.597l0.46-0.334h-0.569L30,57.722l-0.176,0.541h-0.57l0.461,0.334l-0.176,0.542L30,58.802
		l0.46,0.337L30.284,58.597z M32.798,55.246l0.462-0.334h-0.57l-0.176-0.541l-0.176,0.541h-0.57l0.461,0.334l-0.175,0.543
		l0.46-0.335l0.46,0.335L32.798,55.246z M34.526,51.156l0.462-0.334h-0.569l-0.176-0.541l-0.177,0.541h-0.57l0.462,0.334
		l-0.177,0.543l0.461-0.336l0.46,0.336L34.526,51.156z M35.316,59.452h-6.853V44.951h6.853v1.387h-0.34L34.8,45.797l-0.176,0.541
		h-0.57l0.461,0.334l-0.175,0.541l0.46-0.334l0.46,0.334l-0.176-0.541l0.232-0.168V59.452z"/>
</g>
<g>
	<path fill="#FFFFFF" d="M41.779,35.134c3.516,0,5.624-4.821,5.624-7.488c0-1.648-0.969-2.836-2.593-2.836
		c-3.224,0-5.526,4.145-5.526,7.197C39.284,33.85,40.447,35.134,41.779,35.134z M41.418,33.971c-0.583,0-1.116-0.461-1.116-1.236
		c0-1.139,0.582-2.618,1.406-3.926c1.211-1.963,2.496-2.885,3.515-2.885c0.799,0,1.236,0.606,1.212,1.357
		C46.435,28.881,43.938,33.971,41.418,33.971z"/>
	<path fill="#FFFFFF" d="M35.199,25.591c3.065,0,5.216-0.811,6.626-2.113c1.974-1.692,2.75-3.914,2.96-6.805
		c0.106-1.375,0.178-7.543,0.178-8.037c0-0.492,0-5.498,0.07-5.852c0.105-0.423,0.211-1.41,1.516-1.41h1.444
		c0.178,0,0.213-0.141,0.213-0.352V0.247C48.206,0.141,48.171,0,47.854,0c-0.318,0-1.445,0.105-3.877,0.105
		C41.614,0.105,39.992,0,39.64,0c-0.211,0-0.247,0.07-0.247,0.247v0.846c0,0.177,0.036,0.282,0.247,0.282h1.552
		c0.915,0,1.48,0.634,1.585,1.551c0.106,0.882,0.176,2.926,0.176,5.605v7.543c0,2.608-0.458,4.724-1.832,6.204
		c-1.234,1.269-3.279,1.938-5.288,1.938c-2.044,0-4.3-0.635-5.604-2.537c-0.811-1.199-1.092-2.856-1.128-4.478
		c-0.035-1.128-0.176-5.604-0.176-7.474V7.403c0-1.798,0.035-4.266,0.07-4.583c0.071-0.775,0.671-1.445,1.693-1.445h1.763
		c0.247,0,0.282-0.069,0.282-0.247V0.211C32.731,0.07,32.696,0,32.413,0c-0.387,0-2.08,0.105-4.829,0.105S23.108,0,22.755,0
		c-0.283,0-0.318,0.07-0.318,0.282v0.775c0,0.247,0.035,0.316,0.248,0.316h1.656c1.093,0,1.34,0.564,1.34,1.798v8.39
		c0,4.618,0.141,6.979,0.564,8.565c0.563,2.221,1.798,3.772,4.194,4.724C31.603,25.344,33.366,25.591,35.199,25.591z"/>
	<path fill="#FFFFFF" d="M63.388,13.438c0-1.57-0.076-3.983,0.115-5.745c0.076-0.536,0.268-0.804,1.226-0.804h0.382
		c0.153,0,0.23-0.115,0.23-0.27V5.816c0-0.229-0.077-0.307-0.269-0.307c-0.269,0-1.608,0.115-2.412,0.115
		c-1.226,0-2.873-0.115-3.141-0.115c-0.191,0-0.268,0.077-0.268,0.191V6.62c0,0.191,0.076,0.27,0.268,0.27h0.65
		c0.651,0,1.226,0.229,1.417,0.688c0.192,0.46,0.308,2.681,0.308,3.6c0.076,1.227,0.114,2.413,0.114,4.597v2.527h-0.153
		c-0.46-0.499-4.021-4.979-4.711-5.782c-0.804-0.958-5.208-6.512-5.323-6.665c-0.153-0.229-0.383-0.307-0.919-0.307
		c-0.46,0-1.264,0.077-1.876,0.077c-0.422,0-1.035-0.038-1.532-0.077c-0.498,0-0.919-0.038-0.996-0.038
		c-0.153,0-0.229,0.115-0.229,0.229v0.92c0,0.152,0.076,0.229,0.229,0.229h0.345c1.072,0,2.03,0.65,2.03,2.029v4.021
		c0,4.328-0.077,7.047-0.115,7.506c-0.114,0.881-0.728,1.148-1.11,1.148h-0.882c-0.113,0-0.152,0.038-0.152,0.115v0.996
		c0,0.191,0.039,0.269,0.114,0.269c0.307,0,2.03-0.114,2.566-0.114c1.11,0,2.643,0.114,2.91,0.114c0.192,0,0.192-0.076,0.192-0.229
		v-0.919c0-0.153,0-0.229-0.192-0.229h-0.805c-0.383,0-0.804-0.423-0.918-1.303c-0.077-0.345-0.23-4.175-0.23-6.473V8.574h0.078
		c0.611,0.689,3.714,4.826,4.633,5.898c0.422,0.497,2.067,2.45,3.83,4.557c1.57,1.877,2.872,3.447,3.141,3.716
		c0.153,0.115,0.535,0.382,0.88,0.382c0.46,0,0.575-0.382,0.575-0.728V13.438L63.388,13.438z"/>
	<path fill="#FFFFFF" d="M71.729,13.055c0-0.269,0.038-4.826,0.038-5.209c0.038-0.805,0.384-0.957,1.417-0.957h0.65
		c0.191,0,0.23-0.115,0.23-0.27V5.701c0-0.115-0.077-0.191-0.23-0.191c-0.306,0-2.259,0.115-3.369,0.115
		C68.664,5.664,66.29,5.51,66.06,5.51c-0.152,0-0.229,0.077-0.229,0.229V6.62c0,0.153,0.038,0.27,0.229,0.27h0.69
		c1.608,0,1.953,0.383,1.953,0.804c0,0.537,0.076,4.366,0.076,4.979v1.686c0,1.302-0.038,6.167-0.076,6.512
		c-0.076,0.688-0.689,0.729-1.646,0.729h-0.844c-0.153,0-0.229,0.114-0.229,0.229v0.843c0,0.191,0.075,0.307,0.229,0.307
		c0.229,0,2.451-0.114,3.754-0.114c1.723,0,3.715,0.114,4.021,0.114c0.191,0,0.229-0.114,0.229-0.269v-0.919
		c0-0.115-0.038-0.19-0.229-0.19h-0.574c-1.109,0-1.569-0.537-1.646-1.417c-0.038-0.575-0.038-4.979-0.038-5.208L71.729,13.055
		L71.729,13.055z"/>
	<path fill="#FFFFFF" d="M109.994,14.126c-0.038,2.336,0,4.597-0.038,6.475c0,0.841-0.46,0.996-1.378,0.996h-0.46
		c-0.153,0-0.229,0.075-0.229,0.19v0.881c0,0.191,0.076,0.307,0.229,0.307c0.269,0,2.221-0.114,3.178-0.114
		c1.265,0,3.332,0.114,3.601,0.114c0.229,0,0.307-0.076,0.307-0.269v-0.919c0-0.115-0.076-0.19-0.229-0.19h-0.996
		c-0.767,0-0.996-0.423-1.072-0.958v-4.137v-0.919c0.269-0.077,0.613-0.077,0.996-0.077c1.607,0,2.184,0.844,3.562,3.218
		c0.345,0.573,2.029,3.677,2.759,4.213c0.649-0.038,1.569-0.076,2.45-0.076c0.384,0,0.843,0.038,1.188,0.038
		c0.383,0.038,0.688,0.076,0.767,0.076c0.151,0,0.229-0.114,0.229-0.269V21.94c0-0.229-0.039-0.344-0.192-0.344
		c-0.688,0-1.188-0.039-1.724-0.423c-0.729-0.535-1.608-1.686-2.145-2.45c-1.572-2.222-2.337-3.409-3.218-3.601v-0.077
		c3.024-1.071,4.519-2.604,4.519-5.246c0-0.881-0.496-1.991-1.34-2.795c-0.958-0.843-2.681-1.494-4.979-1.494
		c-0.497,0-3.83,0.115-4.289,0.115c-0.689,0-3.064-0.115-3.256-0.115c-0.153,0-0.229,0.077-0.229,0.191V6.62
		c0,0.153,0.038,0.27,0.153,0.27h0.383c1.072,0,1.417,0.421,1.455,1.187v3.677v2.373H109.994z M112.904,7.578
		c0-0.688,0.576-0.842,1.15-0.842c1.529,0,2.604,0.345,3.637,0.996c0.689,0.459,1.265,1.494,1.265,2.643
		c0,0.996-0.651,3.983-4.901,3.983c-0.498,0-0.882-0.038-1.15-0.076V7.578L112.904,7.578z"/>
	<path fill="#FFFFFF" d="M130.889,23.319c3.484,0,5.322-2.451,5.322-5.324c0-1.915-0.459-2.872-1.225-3.676
		c-0.959-0.996-2.375-1.417-4.137-2.068c-0.729-0.268-2.106-0.843-2.681-1.569c-0.422-0.499-0.612-1.304-0.612-1.877
		c0-0.689,0.612-2.337,2.719-2.337c1.109,0,1.953,0.385,2.526,1.035c0.804,0.919,1.11,2.26,1.343,2.72
		c0.037,0.114,0.113,0.19,0.229,0.152l0.689-0.152c0.114-0.038,0.152-0.115,0.152-0.229c-0.038-0.536-0.383-3.025-0.383-4.29
		c0-0.19-0.039-0.345-0.346-0.345c-0.305,0-0.422,0-0.498,0.115l-0.152,0.268c-0.077,0.191-0.27,0.153-0.65-0.076
		c-0.459-0.229-1.265-0.498-2.719-0.498c-1.379,0-2.605,0.346-3.601,1.149c-0.845,0.728-1.646,1.915-1.646,3.217
		c0,1.876,0.459,3.102,1.34,3.944c1.147,1.033,2.986,1.724,3.754,1.991c2.027,0.768,3.521,1.724,3.521,3.906
		c0,1.647-1.838,2.604-3.062,2.604c-1.418,0-2.683-0.767-3.256-1.915c-0.688-1.264-0.688-2.068-0.688-2.604
		c0-0.152-0.153-0.229-0.308-0.269l-0.688-0.076c-0.153,0-0.229,0.114-0.269,0.268c-0.039,0.613-0.308,3.678-0.422,4.75
		c-0.037,0.192,0.078,0.346,0.308,0.423c0.307,0.075,0.498,0,0.573-0.192l0.115-0.306c0.075-0.308,0.307-0.27,0.573-0.077
		C127.596,22.668,128.936,23.319,130.889,23.319z"/>
	<path fill="#FFFFFF" d="M142.698,13.055c0-0.269,0.038-4.826,0.038-5.209c0.039-0.805,0.384-0.957,1.418-0.957h0.65
		c0.191,0,0.229-0.115,0.229-0.27V5.701c0-0.115-0.077-0.191-0.229-0.191c-0.308,0-2.26,0.115-3.369,0.115
		c-1.801,0.039-4.176-0.115-4.406-0.115c-0.151,0-0.229,0.077-0.229,0.229V6.62c0,0.153,0.038,0.27,0.229,0.27h0.691
		c1.607,0,1.952,0.383,1.952,0.804c0,0.537,0.076,4.366,0.076,4.979v1.686c0,1.302-0.038,6.167-0.076,6.512
		c-0.075,0.688-0.688,0.729-1.646,0.729h-0.844c-0.154,0-0.229,0.114-0.229,0.229v0.843c0,0.191,0.074,0.307,0.229,0.307
		c0.229,0,2.451-0.114,3.754-0.114c1.724,0,3.715,0.114,4.021,0.114c0.19,0,0.229-0.114,0.229-0.269v-0.919
		c0-0.115-0.039-0.19-0.229-0.19h-0.574c-1.108,0-1.569-0.537-1.646-1.417c-0.039-0.575-0.039-4.979-0.039-5.208L142.698,13.055
		L142.698,13.055z"/>
	<path fill="#FFFFFF" d="M80.954,35.749c0-0.268,0.038-4.826,0.038-5.208c0.038-0.804,0.383-0.958,1.417-0.958h0.65
		c0.191,0,0.23-0.115,0.23-0.268v-0.919c0-0.115-0.077-0.191-0.23-0.191c-0.307,0-2.26,0.115-3.37,0.115
		c-1.8,0.039-4.175-0.115-4.403-0.115c-0.154,0-0.23,0.076-0.23,0.229v0.881c0,0.152,0.039,0.268,0.23,0.268h0.688
		c1.609,0,1.954,0.383,1.954,0.805c0,0.535,0.076,4.365,0.076,4.979v1.685c0,1.304-0.038,6.167-0.076,6.513
		c-0.077,0.688-0.689,0.729-1.646,0.729h-0.843c-0.152,0-0.229,0.113-0.229,0.229v0.843c0,0.192,0.077,0.307,0.229,0.307
		c0.23,0,2.451-0.113,3.753-0.113c1.724,0,3.716,0.113,4.021,0.113c0.192,0,0.23-0.113,0.23-0.269v-0.918
		c0-0.116-0.038-0.191-0.23-0.191H82.64c-1.112,0-1.572-0.537-1.647-1.418c-0.038-0.574-0.038-4.979-0.038-5.209L80.954,35.749
		L80.954,35.749z"/>
	<path fill="#FFFFFF" d="M86.767,36.82c-0.038,2.338,0,4.598-0.038,6.475c0,0.843-0.46,0.996-1.379,0.996h-0.46
		c-0.154,0-0.229,0.075-0.229,0.191v0.88c0,0.192,0.075,0.307,0.229,0.307c0.268,0,2.222-0.113,3.179-0.113
		c1.264,0,3.332,0.113,3.6,0.113c0.229,0,0.308-0.076,0.308-0.269v-0.918c0-0.116-0.076-0.191-0.229-0.191h-0.996
		c-0.766,0-0.995-0.422-1.072-0.959v-4.136v-0.92C89.945,38.2,90.29,38.2,90.673,38.2c1.608,0,2.183,0.843,3.562,3.218
		c0.346,0.574,2.029,3.676,2.759,4.213c0.649-0.038,1.569-0.075,2.45-0.075c0.384,0,0.844,0.037,1.188,0.037
		c0.384,0.038,0.688,0.076,0.767,0.076c0.152,0,0.229-0.113,0.229-0.269v-0.767c0-0.229-0.039-0.344-0.192-0.344
		c-0.688,0-1.188-0.039-1.724-0.422c-0.728-0.537-1.608-1.686-2.146-2.451c-1.57-2.222-2.336-3.408-3.217-3.601V37.74
		c3.025-1.073,4.52-2.604,4.52-5.248c0-0.88-0.497-1.991-1.34-2.796c-0.959-0.842-2.682-1.493-4.979-1.493
		c-0.498,0-3.83,0.115-4.289,0.115c-0.69,0-3.064-0.115-3.257-0.115c-0.152,0-0.229,0.076-0.229,0.191v0.919
		c0,0.152,0.038,0.268,0.153,0.268h0.384c1.072,0,1.417,0.422,1.455,1.188v3.677V36.82z M89.896,30.272
		c0-0.689,0.575-0.843,1.149-0.843c1.532,0,2.604,0.345,3.639,0.995c0.689,0.459,1.265,1.494,1.265,2.644
		c0,0.996-0.65,3.981-4.902,3.981c-0.497,0-0.882-0.039-1.149-0.074L89.896,30.272L89.896,30.272z"/>
	<path fill="#FFFFFF" d="M115.518,40.344c0-0.65,0.727-0.804,1.109-0.804h0.65c0.113,0,0.19-0.114,0.19-0.229v-0.918
		c0-0.116-0.077-0.192-0.229-0.192s-1.877,0.076-3.295,0.076c-2.066,0-3.943-0.076-4.174-0.076c-0.153,0-0.189,0.076-0.189,0.192
		v0.918c0,0.115,0.036,0.19,0.189,0.19h0.92c0.994,0,1.877,0.271,1.877,1.149v1.418c0,0.766-0.076,1.263-0.574,1.646
		c-0.613,0.497-1.84,0.843-3.18,0.843c-1.071,0-2.604-0.573-3.676-1.724c-1.494-1.569-2.338-3.754-2.338-6.702
		c0-1.725,0.844-3.754,1.991-5.018c1.417-1.532,2.911-1.953,4.099-1.953c1.762,0,2.834,0.766,3.867,1.838
		c0.92,0.919,1.571,2.106,1.84,2.72c0.115,0.307,0.19,0.346,0.307,0.307l0.728-0.229c0.115-0.039,0.153-0.114,0.153-0.307
		c-0.075-0.689-0.575-4.251-0.575-4.443c0-0.268-0.076-0.421-0.421-0.421c-0.305,0-0.421,0.115-0.497,0.269l-0.192,0.345
		c-0.076,0.115-0.229,0.115-0.535-0.153c-0.728-0.537-2.527-1.226-4.365-1.226c-2.721,0-5.057,0.804-6.856,2.336
		c-1.837,1.607-2.833,3.944-2.833,6.28c0,2.985,0.768,5.056,2.299,6.74c1.799,1.991,4.862,2.797,6.854,2.797
		c2.451,0,4.52-0.535,6.549-1.531c0.27-0.116,0.422-0.23,0.422-0.422c0-0.192-0.113-0.421-0.113-0.767V40.344L115.518,40.344z"/>
	<path fill="#FFFFFF" d="M122.988,35.749c0-0.268,0.039-4.826,0.039-5.208c0.037-0.804,0.384-0.958,1.418-0.958h0.65
		c0.19,0,0.229-0.115,0.229-0.268v-0.919c0-0.115-0.075-0.191-0.229-0.191c-0.308,0-2.26,0.115-3.371,0.115
		c-1.8,0.039-4.175-0.115-4.404-0.115c-0.153,0-0.229,0.076-0.229,0.229v0.881c0,0.152,0.038,0.268,0.229,0.268h0.688
		c1.608,0,1.954,0.383,1.954,0.805c0,0.535,0.077,4.365,0.077,4.979v1.685c0,1.304-0.039,6.167-0.077,6.513
		c-0.076,0.688-0.689,0.729-1.646,0.729h-0.842c-0.154,0-0.23,0.113-0.23,0.229v0.843c0,0.192,0.076,0.307,0.23,0.307
		c0.229,0,2.45-0.113,3.752-0.113c1.725,0,3.715,0.113,4.022,0.113c0.19,0,0.229-0.113,0.229-0.269v-0.918
		c0-0.116-0.039-0.191-0.229-0.191h-0.575c-1.111,0-1.57-0.537-1.646-1.418c-0.039-0.574-0.039-4.979-0.039-5.209V35.749z"/>
	<path fill="#FFFFFF" d="M143.607,36.133c0-1.57-0.075-3.983,0.115-5.745c0.076-0.536,0.269-0.805,1.227-0.805h0.383
		c0.152,0,0.23-0.115,0.23-0.268V28.51c0-0.229-0.078-0.307-0.27-0.307c-0.27,0-1.607,0.115-2.412,0.115
		c-1.227,0-2.873-0.115-3.143-0.115c-0.19,0-0.268,0.076-0.268,0.191v0.919c0,0.19,0.076,0.268,0.268,0.268h0.652
		c0.65,0,1.226,0.23,1.416,0.689c0.192,0.459,0.308,2.682,0.308,3.601c0.075,1.226,0.114,2.412,0.114,4.595v2.528h-0.152
		c-0.46-0.498-4.021-4.979-4.711-5.783c-0.805-0.957-5.209-6.511-5.323-6.664c-0.153-0.229-0.384-0.306-0.919-0.306
		c-0.459,0-1.264,0.077-1.878,0.077c-0.42,0-1.032-0.039-1.53-0.077c-0.498,0-0.92-0.038-0.996-0.038
		c-0.152,0-0.229,0.115-0.229,0.229v0.919c0,0.152,0.076,0.229,0.229,0.229h0.346c1.07,0,2.028,0.652,2.028,2.03v4.021
		c0,4.327-0.075,7.048-0.114,7.508c-0.114,0.881-0.729,1.148-1.109,1.148h-0.881c-0.116,0-0.154,0.037-0.154,0.113V45.4
		c0,0.191,0.038,0.269,0.115,0.269c0.306,0,2.029-0.113,2.564-0.113c1.111,0,2.644,0.113,2.91,0.113
		c0.193,0,0.193-0.076,0.193-0.229v-0.92c0-0.153,0-0.229-0.193-0.229h-0.804c-0.384,0-0.804-0.422-0.919-1.303
		c-0.076-0.344-0.229-4.176-0.229-6.473v-5.247h0.076c0.612,0.688,3.715,4.824,4.635,5.896c0.42,0.498,2.066,2.451,3.828,4.56
		c1.57,1.876,2.873,3.446,3.143,3.715c0.152,0.115,0.535,0.382,0.88,0.382c0.46,0,0.573-0.382,0.573-0.729V36.133L143.607,36.133z"
		/>
	<path fill="#FFFFFF" d="M50.108,26.118h-2.157c-0.121,0-0.181-0.119-0.132-0.288l0.097-0.412c0.049-0.169,0.216-0.558,0.41-0.558
		h2.107c0.729-2.084,1.434-3.78,2.719-5.21c0.678-0.775,2.01-1.648,3.587-1.648c1.404,0,2.181,0.849,2.181,1.431
		c0,0.751-0.484,1.114-0.969,1.114c-0.776,0-0.994-0.437-1.068-0.97c-0.023-0.243-0.266-0.703-0.992-0.703
		c-2.255,0-2.742,3.202-3.541,5.916c0,0,3.367,0.09,6.117,0.09c2.962,0,4.548-0.104,4.864-0.104c0.317,0,0.354,0.104,0.354,0.247
		v0.811c0,0.176-0.036,0.317-0.282,0.317H61.71c-0.986,0-1.48,0.316-1.48,0.917c0,0.282,0.035,0.705,0.141,1.198
		c0.212,1.27,1.517,5.463,2.151,7.438c0.423,1.34,2.467,7.404,3.277,9.553c0.81-1.655,3.56-8.918,3.842-9.729
		c0.354-0.951,1.693-5.005,2.222-6.558c0.281-0.881,0.493-1.516,0.493-2.01c0-0.422-0.247-0.81-1.128-0.81H70.31
		c-0.141,0-0.176-0.105-0.176-0.317v-0.811c0-0.178,0.035-0.247,0.212-0.247c0.318,0,1.939,0.104,4.16,0.104
		c2.572,0,3.454-0.104,3.771-0.104c0.211,0,0.246,0.069,0.246,0.247v0.881c0,0.141-0.035,0.247-0.246,0.247h-0.952
		c-1.163,0-1.832,0.563-2.503,1.375c-0.916,1.127-3.736,8.354-4.335,9.833c-0.423,1.165-4.97,12.375-5.146,12.727
		c-0.141,0.282-0.317,0.459-0.493,0.459c-0.283,0-0.423-0.354-0.6-0.811c-1.128-3.243-3.983-11.282-4.441-12.551l-0.353-1.198
		c-0.847-2.503-2.503-7.614-2.961-8.671c-0.353-0.812-0.706-1.164-1.445-1.164l-3.277-0.031c-0.631,1.963-1.745,6.11-2.957,9.212
		c-1.479,3.781-3.199,6.473-5.793,6.473c-0.97,0-1.745-0.654-1.745-1.432c0-0.557,0.411-1.042,1.042-1.042
		c0.703,0,1.067,0.679,1.139,1.091c0.05,0.242,0.219,0.412,0.413,0.412c1.162,0,2.472-2.036,3.78-6.52L50.108,26.118z"/>
	<path fill="#FFFFFF" d="M145.928,5.452c0.035-0.027,0.062-0.03,0.149-0.021c0.595,0.065,2.769,0.271,6.976,0.271h1.531
		c1.252,0,2.6-0.051,4.061-0.112c0.733-0.021,5.232,0.035,6.151,0.035c0.843,0,3.446-0.115,3.714-0.115
		c0.153,0,0.27,0.077,0.27,0.269V6.62c0,0.153-0.037,0.27-0.27,0.27h-0.574c-0.688,0-0.728,0.421-0.574,0.65
		c0.229,0.345,3.41,5.438,4.021,6.357c0.574-0.957,3.753-5.591,3.906-5.898c0.307-0.611,0.345-1.109-0.498-1.109h-0.611
		c-0.191,0-0.27-0.115-0.27-0.27V5.777c0-0.153,0.076-0.269,0.27-0.269c0.229,0,2.145,0.115,3.293,0.115
		c0.688,0,2.029-0.115,2.26-0.115c0.191,0,0.269,0.077,0.269,0.307V6.62c0,0.191-0.076,0.27-0.229,0.27h-0.383
		c-0.613,0-1.033,0.114-1.38,0.306c-0.573,0.307-5.016,6.549-5.897,7.89v3.217c0.039,0.957,0,1.992,0.078,2.451
		c0.076,0.805,0.688,0.844,1.377,0.844h0.498c0.191,0,0.269,0.075,0.269,0.19v0.919c0,0.153-0.076,0.269-0.306,0.269
		c-0.23,0-2.375-0.114-3.639-0.114c-0.843,0-3.063,0.114-3.293,0.114c-0.191,0-0.27-0.076-0.27-0.307v-0.843
		c0-0.115,0.076-0.229,0.229-0.229h0.575c1.226,0,1.455-0.229,1.494-0.767c0.038-0.345,0.038-1.724,0.038-3.982v-1.38
		c-0.346-0.688-5.018-7.544-5.631-8.118c-0.323-0.324-0.867-0.43-1.213-0.454c0.229,1.039,0.537,2.397,0.66,3.058
		c0.037,0.153-0.039,0.229-0.191,0.306l-0.65,0.191c-0.23,0.077-0.347,0.039-0.423-0.153c-0.46-0.958-1.11-2.222-1.915-2.948
		c-0.957-0.345-3.759-0.383-4.447-0.383V13.4c0,4.021,0,6.894,0.037,7.201c0.076,0.611,0.27,0.996,0.883,0.996h1.453
		c0.191,0,0.271,0.114,0.271,0.344v0.805c0,0.115-0.078,0.229-0.271,0.229c-0.268,0-2.643-0.114-3.906-0.114
		c-1.071,0-3.561,0.114-3.867,0.114c-0.229,0-0.307-0.114-0.307-0.345v-0.766c0-0.191,0.076-0.268,0.23-0.268h1.529
		c0.576,0,0.845-0.308,0.883-0.613c0.115-1.456,0.115-3.485,0.115-5.783V6.966c-0.729,0-2.879-0.039-4.297,0.345
		c-0.957,0.728-1.762,1.953-2.26,2.948c-0.076,0.153-0.19,0.269-0.345,0.191l-0.688-0.268c-0.191-0.077-0.191-0.229-0.152-0.384
		c0.221-0.695,0.886-3.058,1.197-4.217C145.881,5.502,145.891,5.48,145.928,5.452z"/>
	<path fill="#FFFFFF" d="M160.062,37.702h5.209c-0.154-0.536-1.953-6.28-2.029-6.587c-0.077-0.23-0.115-0.383-0.23-0.383
		s-0.191,0.115-0.307,0.421C162.589,31.459,160.253,37.32,160.062,37.702z M152.113,35.749v1.915c0,0.229,0,4.635,0.039,5.209
		c0.076,0.881,0.535,1.418,1.646,1.418h0.442c0.65,0,1.264-0.383,1.57-0.805c0.267-0.307,2.221-4.903,3.14-6.818
		c0.268-0.535,2.526-5.745,2.758-6.396c0.077-0.229,0.308-0.651,0.038-0.767c-0.077-0.076-0.191-0.268-0.153-0.383
		c-0.038-0.077,0.039-0.191,0.384-0.268c0.728-0.115,1.799-0.805,2.145-1.11c0.077-0.153,0.23-0.269,0.46-0.269
		s0.308,0.152,0.383,0.421c0.536,1.532,2.49,7.008,2.988,8.541c0.573,1.915,2.221,6.435,2.487,6.817
		c0.5,0.688,1.148,1.034,1.801,1.034h0.729c0.152,0,0.191,0.113,0.191,0.229v0.805c0,0.115-0.039,0.345-0.27,0.345
		c-0.459,0-2.49-0.113-3.369-0.113c-0.729,0-2.987,0.113-3.484,0.113c-0.27,0-0.309-0.189-0.309-0.345V44.52
		c0-0.115,0.039-0.229,0.192-0.229h0.612c0.46,0,0.611-0.346,0.611-0.65c-0.151-0.768-1.186-3.831-1.492-4.713h-6.166
		c-0.152,0.461-1.379,3.64-1.531,4.101c-0.23,0.765-0.115,1.264,0.689,1.264h0.957c0.229,0,0.268,0.113,0.268,0.268V45.4
		c0,0.154-0.039,0.269-0.229,0.269c-0.307,0-2.338-0.113-2.949-0.113c-0.477,0-5.17,0-6.34,0c-1.304,0-3.523,0.113-3.754,0.113
		c-0.152,0-0.229-0.113-0.229-0.307V44.52c0-0.115,0.076-0.229,0.229-0.229h0.842c0.959,0,1.57-0.039,1.647-0.729
		c0.039-0.346,0.076-5.209,0.076-6.513v-1.685c0-0.613-0.076-4.443-0.076-4.979c0-0.421-0.344-0.804-1.953-0.804h-0.688
		c-0.191,0-0.23-0.115-0.23-0.268v-0.881c0-0.153,0.078-0.229,0.23-0.229c0.229,0,2.604,0.153,4.402,0.115
		c1.111,0,3.064-0.115,3.371-0.115c0.153,0,0.23,0.076,0.23,0.191v0.919c0,0.152-0.039,0.268-0.23,0.268h-0.65
		c-1.033,0-1.379,0.153-1.416,0.958C152.152,30.923,152.113,35.481,152.113,35.749z"/>
	<path fill="#FFFFFF" d="M82.062,5.777v0.882c0,0.152-0.114,0.229-0.268,0.229h-0.881c-0.499,0-1.072,0.076-1.072,0.573
		c0,0.881,0.65,2.375,1.686,5.593c0.306,0.956,1.722,5.399,1.952,6.012h0.116c0.229-0.804,2.104-5.552,2.297-6.127
		c1.455-4.251,1.953-5.286,1.953-5.668c0-0.191-0.154-0.383-0.804-0.383h-0.423c-0.153,0-0.229-0.077-0.229-0.27v-0.88
		c0-0.115,0.075-0.229,0.229-0.229c0.23,0,2.223,0.115,3.104,0.115c0.638,0,5.295,0,5.854,0l8.578-0.038
		c0.383,0,0.881-0.077,1.033-0.077c0.076,0,0.153,0.077,0.229,0.536c0.078,0.346,1.149,3.64,1.228,3.907
		c0.037,0.153,0.037,0.229-0.039,0.269l-0.612,0.269c-0.076,0.038-0.229,0.038-0.345-0.153c-0.078-0.114-1.914-2.26-2.565-2.873
		c-0.46-0.421-1.073-0.573-1.455-0.573l-4.06-0.077v6.511c0.229,0,2.488-0.115,2.795-0.191c0.996-0.268,1.379-0.804,1.379-1.99
		c0-0.153,0.037-0.191,0.191-0.191l0.844,0.038c0.152,0,0.268,0.076,0.229,0.229c-0.076,0.345-0.076,2.375-0.076,2.72
		c0,0.843,0.115,2.03,0.153,2.527c0,0.154-0.077,0.192-0.19,0.192l-0.805,0.076c-0.115,0-0.193,0-0.23-0.153
		c-0.19-0.957-0.422-1.57-1.416-1.799c-1.149-0.269-2.489-0.269-2.873-0.269v1.302c0,1.341,0.078,3.562,0.078,4.061
		c0,1.8,1.108,1.915,2.756,1.915c1.687,0,2.758-0.038,4.06-1.073c0.308-0.229,1.647-1.952,2.03-2.564
		c0.191-0.27,0.383-0.308,0.498-0.23l0.611,0.345c0.078,0.039,0.154,0.153,0.115,0.269l-1.379,4.06
		c-0.076,0.191-0.27,0.383-0.421,0.383c-0.269,0-2.299-0.114-10.34-0.114c-0.69,0-2.798,0.114-3.255,0.114
		c-0.193,0-0.23-0.114-0.23-0.269v-0.881c0-0.153,0.076-0.229,0.27-0.229h0.344c1.8,0,1.914-0.154,1.914-0.689v-5.784v-2.374
		c0-2.029-0.038-4.52-0.076-4.902c-0.115-0.805-0.346-0.957-1.876-0.957h-0.301h-0.082h-0.531c-0.728,0-1.265,0.229-1.609,0.573
		c-0.727,0.729-2.795,5.745-3.178,6.741c-0.346,0.804-3.485,8.312-3.792,8.809c-0.115,0.191-0.307,0.307-0.611,0.307
		c-0.308,0-0.499-0.268-0.613-0.574c-0.843-2.26-2.872-7.812-3.18-8.656l-0.27-0.846c-0.65-1.762-1.801-5.247-2.068-5.63
		c-0.307-0.421-0.612-0.728-1.11-0.728h-0.383c-0.154,0-0.191-0.115-0.191-0.229V5.701c0-0.115,0.076-0.191,0.229-0.191
		c0.191,0,2.298,0.115,3.294,0.115c0.919,0,3.256-0.115,3.484-0.115C81.985,5.51,82.062,5.586,82.062,5.777z"/>
</g>
<path fill="#FFFFFF" d="M42.475,57.456c0,0.519-0.04,4.371-0.06,5.308c0,0.476-0.06,0.951-0.557,0.951h-1.173
	c-0.079,0-0.139,0.041-0.139,0.121v0.517c0,0.098,0.04,0.139,0.139,0.139c0.458,0,1.054-0.06,2.762-0.06
	c1.432,0,2.126,0.06,2.503,0.06c0.12,0,0.159-0.041,0.159-0.139v-0.497c0-0.1-0.039-0.141-0.159-0.141h-0.974
	c-0.416,0-0.616-0.198-0.635-0.676c-0.02-1.39-0.04-4.45-0.04-4.986v-0.417c0-0.139,0.059-0.197,0.278-0.197h7.271
	c0.338,0,0.438,0.019,0.438,0.236v0.278c0,0.717-0.039,3.914-0.06,4.848c0,0.537-0.06,0.914-0.536,0.914h-1.251
	c-0.12,0-0.16,0.041-0.16,0.141v0.497c0,0.079,0.04,0.139,0.119,0.139c0.597,0,1.232-0.06,2.961-0.06c1.45,0,2.126,0.06,2.504,0.06
	c0.119,0,0.157-0.041,0.157-0.16v-0.476c0-0.1-0.038-0.141-0.178-0.141H54.97c-0.597,0-0.795-0.277-0.795-0.991
	c-0.021-1.134-0.06-4.908-0.06-5.544v-0.677c0-0.734,0.039-4.092,0.039-4.37c0-0.716,0.06-1.054,0.637-1.054h0.894
	c0.119,0,0.159-0.02,0.159-0.139v-0.478c0-0.12-0.021-0.158-0.159-0.158c-0.377,0-1.192,0.06-2.542,0.06
	c-1.353,0-2.205-0.06-2.623-0.06c-0.101,0-0.12,0.038-0.12,0.118v0.518c0,0.101,0.041,0.139,0.14,0.139h1.033
	c0.576,0,0.655,0.378,0.655,1.013c0,0.239,0.06,3.001,0.06,4.135v0.197c0,0.259-0.1,0.3-0.396,0.3H44.54
	c-0.18,0-0.238-0.062-0.238-0.16v-0.337c0-1.112,0.04-3.735,0.04-4.015c0-0.795,0.1-1.133,0.774-1.133h1.013
	c0.119,0,0.159-0.038,0.159-0.159v-0.516c0-0.08-0.06-0.1-0.198-0.1c-0.378,0-1.093,0.06-2.643,0.06c-1.748,0-2.384-0.06-2.78-0.06
	c-0.101,0-0.16,0.038-0.16,0.139v0.477c0,0.121,0.021,0.159,0.119,0.159h0.934c0.736,0,0.875,0.278,0.875,1.292
	c0,0.318,0.04,2.999,0.04,4.231V57.456z"/>
<path fill="#FFFFFF" d="M59.833,54.596l2.488,0.048c0.234,0,0.61,0.094,0.892,0.353c0.399,0.374,1.526,1.689,1.573,1.76
	c0.07,0.117,0.164,0.117,0.211,0.094l0.376-0.163c0.047-0.024,0.047-0.07,0.022-0.165c-0.046-0.163-0.704-2.184-0.75-2.395
	c-0.048-0.281-0.095-0.328-0.141-0.328c-0.095,0-0.4,0.047-0.635,0.047l-5.258,0.022c-0.351,0-1.643-0.069-1.994-0.069
	c-0.093,0-0.118,0.069-0.118,0.117v0.562c0,0.117,0.025,0.165,0.095,0.165h0.234c0.938,0,1.079,0.094,1.149,0.587
	c0.023,0.233,0.048,1.76,0.048,3.004v1.455v3.544c0,0.328-0.07,0.423-1.173,0.423H56.64c-0.116,0-0.164,0.047-0.164,0.141v0.54
	c0,0.095,0.022,0.164,0.141,0.164c0.281,0,1.572-0.069,1.994-0.069c4.929,0,6.174,0.069,6.338,0.069
	c0.094,0,0.212-0.118,0.258-0.233l0.845-2.488c0.024-0.071-0.023-0.142-0.07-0.165l-0.374-0.21
	c-0.071-0.047-0.188-0.024-0.307,0.141c-0.234,0.376-1.056,1.432-1.243,1.572c-0.799,0.633-1.455,0.656-2.487,0.656
	c-1.011,0-1.691-0.069-1.691-1.174c0-0.304-0.047-1.665-0.047-2.485v-0.799c0.235,0,1.057,0,1.761,0.163
	c0.609,0.143,0.751,0.517,0.868,1.104c0.024,0.094,0.07,0.094,0.142,0.094l0.491-0.049c0.071,0,0.118-0.021,0.118-0.117
	c-0.022-0.304-0.094-1.031-0.094-1.548c0-0.211,0-1.456,0.047-1.667c0.024-0.094-0.047-0.141-0.142-0.141l-0.516-0.023
	c-0.094,0-0.117,0.023-0.117,0.118c0,0.729-0.234,1.057-0.845,1.221c-0.188,0.048-1.572,0.116-1.714,0.116L59.833,54.596
	L59.833,54.596z"/>
<path fill="#FFFFFF" d="M107.036,58.469c0-0.539,0.022-2.909,0.022-3.262c0-0.306,0.142-0.562,0.518-0.562h0.609
	c0.188,0,0.211-0.071,0.211-0.165v-0.446c0-0.164-0.023-0.233-0.211-0.233s-1.597,0.069-1.996,0.069
	c-0.517,0-1.971-0.069-2.229-0.069c-0.117,0-0.165,0.047-0.165,0.164v0.54c0,0.094,0.048,0.142,0.165,0.142h0.682
	c0.305,0,0.539,0.258,0.539,0.751c0,0.188,0.047,2.018,0.047,2.65v0.212c0,0.188-0.095,0.234-0.33,0.234h-5.303
	c-0.141,0-0.188-0.07-0.188-0.188v-0.188c0-0.704,0.024-2.651,0.024-2.862c0-0.353,0.232-0.609,0.633-0.609h0.656
	c0.166,0,0.188-0.048,0.188-0.165v-0.492c0-0.142-0.048-0.188-0.188-0.188c-0.257,0-1.595,0.069-2.111,0.069
	c-0.586,0-2.111-0.069-2.371-0.069c-0.163,0-0.188,0.047-0.188,0.188v0.492c0,0.117,0.049,0.165,0.188,0.165h0.635
	c0.422,0,0.68,0.211,0.68,0.892c0,0.235,0.049,2.064,0.049,3.004v0.658c0,0.375-0.049,3.285-0.049,3.59
	c-0.021,0.493-0.046,0.869-0.586,0.869h-0.729c-0.116,0-0.163,0.023-0.163,0.141v0.54c0,0.117,0.047,0.164,0.163,0.164
	c0.33,0,1.854-0.069,2.301-0.069c0.518,0,1.832,0.069,2.113,0.069c0.094,0,0.141-0.069,0.141-0.164V63.82
	c0-0.117-0.047-0.164-0.141-0.164h-0.705c-0.327,0-0.491-0.142-0.516-0.869c-0.024-0.445-0.024-2.746-0.024-3.145V59.43
	c0-0.116,0.049-0.143,0.235-0.143h5.233c0.258,0,0.353,0.025,0.353,0.188v0.212c0,0.424-0.047,2.815-0.047,3.145
	c0,0.539-0.07,0.822-0.424,0.822h-0.914c-0.117,0-0.166,0.047-0.166,0.141v0.54c0,0.095,0.049,0.164,0.213,0.164
	c0.375,0,1.782-0.069,2.275-0.069c0.751,0,1.949,0.069,2.16,0.069c0.141,0,0.188-0.047,0.188-0.164V63.82
	c0-0.094-0.021-0.164-0.117-0.164h-0.682c-0.492,0-0.633-0.234-0.656-1.15c0-0.21-0.022-3.027-0.022-3.521V58.469z"/>
<path fill="#FFFFFF" d="M85.573,53.674c0.019-0.013,0.035-0.02,0.091-0.014c0.369,0.042,1.712,0.167,4.311,0.167h0.947
	c0.161,0,0.326-0.001,0.493-0.004c1.96-0.026,3.01-0.124,3.328-0.159c0.057-0.006,0.071,0,0.092,0.014
	c0.024,0.016,0.03,0.03,0.042,0.08c0.193,0.717,0.604,2.177,0.741,2.605c0.022,0.094,0.022,0.188-0.095,0.236l-0.426,0.166
	c-0.095,0.047-0.166-0.023-0.214-0.119c-0.308-0.614-0.805-1.372-1.396-1.822c-0.629-0.168-1.489-0.204-2.094-0.211v3.972
	c0,2.485,0,4.26,0.023,4.448c0.048,0.379,0.166,0.616,0.546,0.616h0.897c0.119,0,0.166,0.069,0.166,0.212v0.497
	c0,0.072-0.047,0.143-0.166,0.143c-0.166,0-1.633-0.069-2.414-0.069c-0.664,0-2.201,0.069-2.391,0.069
	c-0.142,0-0.188-0.069-0.188-0.213v-0.474c0-0.118,0.047-0.165,0.142-0.165h0.946c0.355,0,0.521-0.19,0.545-0.38
	c0.07-0.898,0.07-2.152,0.07-3.573v-5.088c-0.449,0-1.779-0.022-2.654,0.212c-0.592,0.451-1.089,1.209-1.396,1.822
	c-0.048,0.096-0.118,0.168-0.213,0.12l-0.427-0.167c-0.117-0.048-0.117-0.143-0.094-0.236c0.137-0.429,0.548-1.891,0.74-2.605
	C85.542,53.704,85.549,53.689,85.573,53.674z"/>
<path fill="#FFFFFF" d="M86.965,61.334L86.59,61.17c-0.096-0.023-0.143,0.024-0.213,0.118c-0.352,0.586-1.501,2.159-1.877,2.275
	c-0.586,0.069-3.215,0.047-3.498,0.047c-0.046-0.54-0.046-3.59-0.046-3.85v-1.291c0-1.057,0.046-3.12,0.046-3.309
	c0-0.376,0.071-0.517,0.939-0.517h0.353c0.094,0,0.141-0.072,0.141-0.142V53.94c0-0.096-0.023-0.142-0.117-0.142
	c-0.164,0-1.526,0.069-2.3,0.069c-0.868,0-2.065-0.069-2.23-0.069c-0.069,0-0.116,0.046-0.116,0.117v0.562
	c0,0.094,0.023,0.165,0.116,0.165h0.353c0.846,0,0.916,0.141,0.963,0.539c0.023,0.165,0.047,1.596,0.047,2.558v0.846
	c0,0.892-0.047,4.271-0.047,4.647c-0.024,0.212-0.235,0.423-0.657,0.423h-1.374c-0.399,0-0.799-0.211-1.103-0.634
	c-0.165-0.236-1.174-3.004-1.526-4.177c-0.306-0.941-1.502-4.297-1.831-5.235c-0.046-0.164-0.093-0.257-0.234-0.257
	s-0.234,0.067-0.281,0.163c-0.21,0.188-0.869,0.61-1.314,0.681c-0.212,0.047-0.259,0.117-0.234,0.164
	c-0.025,0.07,0.046,0.188,0.094,0.234c0.165,0.07,0.023,0.327-0.023,0.469c-0.14,0.399-1.526,3.592-1.689,3.921
	c-0.564,1.173-1.761,3.99-1.925,4.178c-0.189,0.259-0.564,0.493-0.963,0.493h-0.329c-0.093,0-0.093,0.047-0.093,0.141v0.492
	c0,0.094,0,0.212,0.093,0.212c0.212,0,1.386-0.069,1.831-0.069c0.376,0,1.619,0.069,1.807,0.069c0.119,0,0.142-0.069,0.142-0.164
	V63.82c0-0.094-0.023-0.164-0.164-0.164h-0.587c-0.493,0-0.564-0.305-0.423-0.775c0.093-0.281,0.844-2.229,0.939-2.511h3.778
	c0.188,0.54,0.822,2.417,0.91,2.888c0,0.188-0.093,0.399-0.375,0.399h-0.376c-0.094,0-0.116,0.071-0.116,0.141v0.492
	c0,0.094,0.023,0.212,0.188,0.212c0.305,0,1.69-0.069,2.135-0.069c0.54,0,2.759,0.045,3.205,0.022c0.446,0,0.939-0.022,1.315-0.022
	c0.679,0,5.937,0.023,6.335,0.046c0.095-0.398,0.706-2.792,0.729-2.91C87.012,61.451,87.012,61.358,86.965,61.334z M69.611,59.62
	L69.611,59.62L69.611,59.62c0.12-0.242,1.549-3.827,1.619-4.015c0.071-0.188,0.118-0.258,0.188-0.258s0.094,0.094,0.141,0.233
	c0.047,0.188,1.15,3.707,1.243,4.038L69.611,59.62L69.611,59.62z"/>
<polygon fill="#FFFFFF" points="69.611,59.62 69.611,59.619 69.611,59.619 "/>
<g>
	<path fill="#FFFFFF" d="M116.878,64.728c2.621,0,4.052-2.005,4.052-4.351c0-1.312-0.355-2.086-0.873-2.703
		c-0.715-0.874-1.828-1.211-3.197-1.646c-0.577-0.18-1.689-0.616-2.267-1.192c-0.497-0.517-0.614-1.173-0.614-1.729
		c0-1.016,0.635-2.324,2.402-2.324c0.936,0,1.629,0.277,2.165,0.854c0.813,0.854,1.072,1.63,1.231,2.204
		c0.021,0.061,0.061,0.079,0.119,0.061l0.238-0.061c0.08-0.019,0.1-0.06,0.1-0.157c-0.02-0.438-0.277-2.465-0.277-3.159
		c0-0.181-0.061-0.338-0.159-0.338s-0.159,0.04-0.259,0.119l-0.258,0.237c-0.1,0.101-0.199,0.12-0.379,0.021
		c-0.336-0.158-1.211-0.496-2.344-0.496c-1.072,0-2.065,0.276-2.781,0.953c-0.615,0.576-1.231,1.55-1.231,2.543
		c0,1.312,0.338,2.245,0.993,2.9c0.854,0.895,2.285,1.391,2.9,1.608c1.59,0.557,3.06,1.312,3.06,3.357
		c0,1.788-1.508,2.522-2.701,2.522c-1.093,0-2.187-0.536-2.78-1.471c-0.656-1.013-0.697-1.667-0.715-2.305
		c0-0.118-0.041-0.158-0.121-0.158l-0.298-0.021c-0.079,0-0.118,0-0.139,0.12c-0.062,0.576-0.259,3.1-0.338,3.596
		c-0.04,0.22,0.06,0.319,0.179,0.319c0.141,0,0.237-0.021,0.357-0.239c0.119-0.199,0.197-0.338,0.316-0.338
		c0.1,0,0.221,0.06,0.458,0.238C114.514,64.311,115.486,64.728,116.878,64.728z"/>
	<path fill="#FFFFFF" d="M127,59.665c0.54-0.818,3.264-4.646,3.613-4.833c0.213-0.118,0.471-0.188,0.846-0.188h0.234
		c0.095,0,0.142-0.048,0.142-0.165v-0.492c0-0.143-0.047-0.188-0.164-0.188c-0.142,0-0.962,0.069-1.386,0.069
		c-0.702,0-1.878-0.069-2.018-0.069c-0.117,0-0.164,0.069-0.164,0.164v0.517c0,0.094,0.047,0.165,0.164,0.165h0.375
		c0.517,0,0.493,0.305,0.305,0.681c-0.094,0.188-2.04,3.027-2.395,3.613c-0.376-0.562-2.322-3.685-2.464-3.896
		c-0.094-0.141-0.069-0.397,0.353-0.397h0.353c0.142,0,0.164-0.071,0.164-0.165v-0.517c0-0.118-0.069-0.164-0.164-0.164
		c-0.164,0-1.761,0.069-2.276,0.069c-0.562,0-1.783-0.069-1.925-0.069c-0.141,0-0.188,0.069-0.188,0.142v0.516
		c0,0.142,0.049,0.188,0.166,0.188h0.328c0.188,0,0.609,0.046,0.845,0.279c0.376,0.354,3.239,4.555,3.45,4.978v0.845
		c0,1.385,0,2.229-0.023,2.44c-0.021,0.329-0.163,0.471-0.915,0.471h-0.353c-0.094,0-0.142,0.07-0.142,0.141v0.517
		c0,0.142,0.048,0.188,0.164,0.188c0.142,0,1.505-0.069,2.019-0.069c0.777,0,2.091,0.069,2.229,0.069
		c0.142,0,0.188-0.069,0.188-0.164v-0.563c0-0.069-0.047-0.116-0.164-0.116h-0.307c-0.422,0-0.797-0.024-0.845-0.517
		c-0.047-0.282-0.022-0.915-0.047-1.503L127,59.665L127,59.665z"/>
	<path fill="#FFFFFF" d="M135.191,64.711c2.136,0,3.263-1.501,3.263-3.262c0-1.174-0.281-1.76-0.75-2.252
		c-0.588-0.611-1.455-0.869-2.534-1.27c-0.445-0.163-1.292-0.517-1.645-0.962c-0.258-0.306-0.375-0.799-0.375-1.149
		c0-0.422,0.375-1.432,1.666-1.432c0.682,0,1.197,0.234,1.55,0.635c0.493,0.562,0.681,1.383,0.821,1.666
		c0.023,0.069,0.068,0.116,0.14,0.093l0.424-0.093c0.069-0.024,0.095-0.07,0.095-0.143c-0.023-0.327-0.234-1.854-0.234-2.628
		c0-0.117-0.023-0.212-0.211-0.212c-0.188,0-0.26,0-0.307,0.07L137,53.939c-0.048,0.117-0.164,0.093-0.398-0.047
		c-0.281-0.142-0.774-0.306-1.666-0.306c-0.846,0-1.598,0.211-2.207,0.703c-0.517,0.446-1.008,1.174-1.008,1.971
		c0,1.15,0.28,1.902,0.82,2.42c0.704,0.634,1.83,1.057,2.3,1.22c1.244,0.47,2.159,1.056,2.159,2.396
		c0,1.007-1.126,1.596-1.878,1.596c-0.868,0-1.644-0.47-1.994-1.175c-0.424-0.773-0.424-1.268-0.424-1.596
		c0-0.094-0.093-0.141-0.188-0.165l-0.42-0.046c-0.096,0-0.142,0.07-0.166,0.164c-0.022,0.375-0.188,2.253-0.259,2.91
		c-0.022,0.116,0.048,0.211,0.188,0.258c0.188,0.047,0.306,0,0.353-0.117l0.071-0.188c0.045-0.188,0.188-0.164,0.351-0.046
		C133.175,64.312,133.996,64.711,135.191,64.711z"/>
	<path fill="#FFFFFF" d="M152.146,54.596l2.488,0.048c0.234,0,0.609,0.094,0.891,0.353c0.399,0.374,1.527,1.689,1.574,1.76
		c0.069,0.117,0.162,0.117,0.211,0.094l0.375-0.163c0.047-0.024,0.047-0.07,0.023-0.165c-0.047-0.163-0.704-2.184-0.751-2.395
		c-0.048-0.281-0.095-0.328-0.14-0.328c-0.096,0-0.4,0.047-0.635,0.047l-5.259,0.022c-0.352,0-1.643-0.069-1.993-0.069
		c-0.096,0-0.119,0.069-0.119,0.117v0.562c0,0.117,0.023,0.165,0.096,0.165h0.232c0.939,0,1.082,0.094,1.151,0.587
		c0.022,0.233,0.046,1.76,0.046,3.004v1.455v3.544c0,0.328-0.07,0.423-1.173,0.423h-0.211c-0.118,0-0.164,0.047-0.164,0.141v0.54
		c0,0.095,0.022,0.164,0.142,0.164c0.279,0,1.57-0.069,1.993-0.069c4.929,0,6.173,0.069,6.337,0.069c0.094,0,0.213-0.118,0.26-0.233
		l0.845-2.488c0.022-0.071-0.023-0.142-0.07-0.165l-0.375-0.21c-0.071-0.047-0.188-0.024-0.306,0.141
		c-0.235,0.376-1.057,1.432-1.244,1.572c-0.799,0.633-1.455,0.656-2.487,0.656c-1.01,0-1.69-0.069-1.69-1.174
		c0-0.304-0.047-1.665-0.047-2.485v-0.799c0.234,0,1.058,0,1.761,0.163c0.61,0.143,0.752,0.517,0.868,1.104
		c0.023,0.094,0.07,0.094,0.142,0.094l0.494-0.049c0.069,0,0.114-0.021,0.114-0.117c-0.021-0.304-0.092-1.031-0.092-1.548
		c0-0.211,0-1.456,0.047-1.667c0.022-0.094-0.047-0.141-0.143-0.141l-0.518-0.023c-0.092,0-0.115,0.023-0.115,0.118
		c0,0.729-0.234,1.057-0.846,1.221c-0.188,0.048-1.572,0.116-1.715,0.116v-3.99H152.146z"/>
	<path fill="#FFFFFF" d="M158.5,54.525c0,0.069,0.047,0.118,0.117,0.118h0.423c0.985,0,0.985,0.188,0.985,0.539
		c0,0.212,0.022,2.439,0.022,2.65c0,0.282-0.046,4.108-0.258,5.163c-0.069,0.354-0.444,0.659-1.127,0.659h-0.306
		c-0.07,0-0.117,0.047-0.117,0.141v0.471c0,0.188,0.023,0.233,0.141,0.233c0.143,0,1.479-0.069,1.996-0.069
		c0.727,0,1.83,0.069,1.971,0.069c0.118,0,0.143-0.069,0.143-0.141v-0.518c0-0.116-0.023-0.188-0.118-0.188h-0.353
		c-0.705,0-1.031-0.234-1.127-1.08c-0.047-0.28-0.022-3.45-0.022-3.639c0-0.164,0.022-3.873,0.069-4.105h0.049
		c0.305,0.562,1.453,3.284,1.783,3.988c0.164,0.354,2.205,5.07,2.275,5.188c0.07,0.142,0.141,0.26,0.282,0.26
		c0.187,0,0.305-0.213,0.375-0.354c0.069-0.142,1.69-3.521,1.994-4.106c0.399-0.775,2.276-4.766,2.396-4.999h-0.07l0.117,0.023v4.6
		c0,0.233-0.023,3.402-0.047,3.755c0,0.212-0.164,0.471-0.635,0.471h-0.751c-0.093,0-0.142,0.047-0.142,0.141v0.471
		c0,0.164,0.049,0.233,0.142,0.233c0.165,0,1.62-0.069,2.206-0.069c0.822,0,2.136,0.069,2.324,0.069
		c0.117,0,0.164-0.069,0.164-0.164v-0.563c0-0.069-0.047-0.116-0.116-0.116h-0.774c-0.377,0-0.518-0.376-0.518-0.822
		c0-0.21-0.046-3.31-0.046-3.613c0-0.329,0.046-3.872,0.046-4.086c0.023-0.232,0.117-0.49,0.445-0.49h0.563
		c0.116,0,0.164-0.071,0.164-0.165v-0.492c0-0.118-0.022-0.188-0.118-0.188c-0.164,0-0.656,0.069-3.121,0.069
		c-0.234,0-0.353,0.071-0.375,0.235c-0.047,0.258-1.502,3.19-1.878,3.941c-0.424,0.893-1.571,3.24-1.76,3.686l-3.381-7.674
		c-0.095-0.188-0.21-0.259-0.397-0.259c-0.307,0-0.775,0.069-1.41,0.069c-0.656,0-1.972-0.069-2.11-0.069
		c-0.07,0-0.117,0.046-0.117,0.117L158.5,54.525L158.5,54.525z"/>
	<path fill="#FFFFFF" d="M138.863,53.674c0.02-0.013,0.035-0.02,0.093-0.014c0.369,0.042,1.712,0.167,4.312,0.167h0.946
		c0.162,0,0.326-0.001,0.491-0.004c1.962-0.026,3.011-0.124,3.329-0.159c0.058-0.006,0.073,0,0.093,0.014
		c0.023,0.016,0.03,0.03,0.043,0.08c0.191,0.717,0.604,2.177,0.74,2.605c0.023,0.094,0.023,0.188-0.096,0.236l-0.426,0.166
		c-0.095,0.047-0.166-0.023-0.213-0.119c-0.309-0.614-0.805-1.372-1.396-1.822c-0.627-0.168-1.489-0.204-2.094-0.211v3.972
		c0,2.485,0,4.26,0.024,4.448c0.048,0.379,0.166,0.616,0.544,0.616h0.898c0.119,0,0.166,0.069,0.166,0.212v0.497
		c0,0.072-0.047,0.143-0.166,0.143c-0.164,0-1.633-0.069-2.412-0.069c-0.663,0-2.201,0.069-2.391,0.069
		c-0.144,0-0.19-0.069-0.19-0.213v-0.474c0-0.118,0.048-0.165,0.144-0.165h0.945c0.355,0,0.521-0.19,0.545-0.38
		c0.071-0.898,0.071-2.152,0.071-3.573v-5.088c-0.449,0-1.778-0.022-2.654,0.212c-0.592,0.451-1.089,1.209-1.396,1.822
		c-0.049,0.096-0.119,0.168-0.215,0.12l-0.425-0.167c-0.118-0.048-0.118-0.143-0.095-0.236c0.137-0.429,0.548-1.891,0.74-2.605
		C138.834,53.704,138.841,53.689,138.863,53.674z"/>
</g>
</svg>
