<?xml version="1.0" encoding="utf-8"?>
<!-- Generator: Adobe Illustrator 16.0.0, SVG Export Plug-In . SVG Version: 6.00 Build 0)  -->
<!DOCTYPE svg PUBLIC "-//W3C//DTD SVG 1.1//EN" "http://www.w3.org/Graphics/SVG/1.1/DTD/svg11.dtd">
<svg version="1.1" id="Layer_1" xmlns="http://www.w3.org/2000/svg" xmlns:xlink="http://www.w3.org/1999/xlink" x="0px" y="0px"
	 width="180px" height="64.728px" viewBox="0 0 180 64.728" enable-background="new 0 0 180 64.728" xml:space="preserve">
<g>
	<g>
		<rect x="24.404" y="44.951" fill="#0D3A59" width="3.046" height="14.501"/>
		<rect x="7.964" y="44.951" fill="#0D3A59" width="2.948" height="14.501"/>
		<rect x="11.926" y="44.951" fill="#0D3A59" width="3.144" height="14.501"/>
		<rect x="16.087" y="44.951" fill="#0D3A59" width="3.143" height="14.501"/>
		<rect x="20.245" y="44.951" fill="#0D3A59" width="3.144" height="14.501"/>
		<polygon fill="#0D3A59" points="26.141,43.927 9.206,43.927 17.898,38.578 		"/>
		<polygon fill="#0D3A59" points="7.255,43.927 0,43.927 0,38.523 16.038,38.523 		"/>
		<polygon fill="#0D3A59" points="19.691,38.523 35.316,38.523 35.316,43.927 28.018,43.927 		"/>
		<path fill="#0D3A59" d="M33.08,37.499H2.237c3.02-5.449,8.793-9.13,15.42-9.13S30.059,32.05,33.08,37.499z"/>
		<path fill-rule="evenodd" clip-rule="evenodd" fill="#0D3A59" d="M5.033,58.597l-0.177,0.542l0.46-0.336l0.461,0.336l-0.176-0.542
			l0.461-0.334H5.493l-0.177-0.541l-0.175,0.541H4.572L5.033,58.597z M2.519,55.246l-0.176,0.543l0.46-0.335l0.46,0.335
			l-0.175-0.543l0.46-0.334H2.978l-0.176-0.541l-0.176,0.541h-0.57L2.519,55.246z M0.79,51.156l-0.177,0.543l0.46-0.336l0.461,0.336
			l-0.176-0.543l0.46-0.334H1.25l-0.177-0.541l-0.175,0.541H0.328L0.79,51.156z M6.949,59.452H0V46.504l0.232,0.168l-0.176,0.541
			l0.46-0.334l0.459,0.334l-0.175-0.541l0.461-0.334h-0.57l-0.175-0.541l-0.176,0.541H0v-1.387h6.949V59.452z"/>
		<rect y="60.477" fill-rule="evenodd" clip-rule="evenodd" fill="#0D3A59" width="6.949" height="3.85"/>
		<rect x="28.463" y="60.477" fill-rule="evenodd" clip-rule="evenodd" fill="#0D3A59" width="6.853" height="3.85"/>
		<path fill-rule="evenodd" clip-rule="evenodd" fill="#0D3A59" d="M22.373,63.219l0.462-0.334h-0.57l-0.177-0.542l-0.175,0.542
			h-0.569l0.46,0.334l-0.176,0.541l0.46-0.334l0.461,0.334L22.373,63.219z M26.443,61.578l0.461-0.334h-0.569l-0.175-0.542
			l-0.177,0.542h-0.569l0.461,0.334l-0.177,0.541l0.461-0.334l0.46,0.334L26.443,61.578z M12.944,63.219l-0.176,0.541l0.461-0.334
			l0.46,0.334l-0.176-0.541l0.46-0.334h-0.569l-0.175-0.542l-0.177,0.542h-0.57L12.944,63.219z M8.873,61.578l-0.176,0.541
			l0.459-0.334l0.461,0.334l-0.177-0.541l0.461-0.334h-0.57l-0.176-0.542l-0.175,0.542H8.412L8.873,61.578z M27.45,60.477v3.85
			h-9.323l-0.162-0.496l0.46-0.335h-0.569l-0.176-0.542l-0.176,0.542h-0.57l0.462,0.335l-0.162,0.496H7.964v-3.85H27.45z
			 M18.08,64.326h-0.797l0.399-0.289L18.08,64.326z"/>
		<path fill-rule="evenodd" clip-rule="evenodd" fill="#0D3A59" d="M30.284,58.597l0.46-0.334h-0.569L30,57.722l-0.176,0.541h-0.57
			l0.461,0.334l-0.176,0.542L30,58.803l0.46,0.336L30.284,58.597z M32.798,55.246l0.462-0.334h-0.57l-0.176-0.541l-0.176,0.541
			h-0.57l0.461,0.334l-0.175,0.543l0.46-0.335l0.46,0.335L32.798,55.246z M34.526,51.156l0.462-0.334h-0.569l-0.176-0.541
			l-0.177,0.541h-0.57l0.462,0.334l-0.177,0.543l0.461-0.336l0.46,0.336L34.526,51.156z M35.316,59.452h-6.853V44.951h6.853v1.387
			h-0.34L34.8,45.797l-0.176,0.541h-0.57l0.461,0.334l-0.175,0.541l0.46-0.334l0.46,0.334l-0.176-0.541l0.232-0.168V59.452z"/>
	</g>
	<g>
		<path fill-rule="evenodd" clip-rule="evenodd" fill="#0D3A59" d="M41.779,35.134c3.516,0,5.624-4.822,5.624-7.489
			c0-1.648-0.969-2.836-2.593-2.836c-3.224,0-5.526,4.145-5.526,7.198C39.284,33.85,40.447,35.134,41.779,35.134z M41.418,33.971
			c-0.583,0-1.116-0.46-1.116-1.236c0-1.139,0.582-2.618,1.406-3.926c1.211-1.963,2.496-2.884,3.515-2.884
			c0.799,0,1.236,0.606,1.212,1.357C46.435,28.881,43.938,33.971,41.418,33.971z"/>
		<path fill-rule="evenodd" clip-rule="evenodd" fill="#0D3A59" d="M35.199,25.591c3.065,0,5.216-0.811,6.626-2.114
			c1.974-1.692,2.75-3.914,2.96-6.804c0.106-1.375,0.178-7.543,0.178-8.037c0-0.493,0-5.499,0.07-5.852
			c0.105-0.423,0.211-1.41,1.516-1.41h1.444c0.178,0,0.213-0.141,0.213-0.352V0.247C48.206,0.141,48.171,0,47.854,0
			c-0.318,0-1.445,0.105-3.877,0.105C41.614,0.105,39.992,0,39.64,0c-0.211,0-0.247,0.07-0.247,0.247v0.846
			c0,0.176,0.036,0.282,0.247,0.282h1.552c0.915,0,1.48,0.634,1.585,1.551c0.106,0.881,0.176,2.925,0.176,5.605v7.543
			c0,2.608-0.458,4.724-1.832,6.204c-1.234,1.269-3.279,1.939-5.288,1.939c-2.044,0-4.3-0.635-5.604-2.538
			c-0.811-1.199-1.092-2.856-1.128-4.477c-0.035-1.128-0.176-5.605-0.176-7.474V7.403c0-1.798,0.035-4.266,0.07-4.583
			c0.071-0.775,0.671-1.445,1.693-1.445h1.763c0.247,0,0.282-0.07,0.282-0.247V0.211C32.731,0.07,32.696,0,32.413,0
			c-0.387,0-2.08,0.105-4.829,0.105C24.835,0.105,23.108,0,22.755,0c-0.283,0-0.318,0.07-0.318,0.282v0.775
			c0,0.247,0.035,0.317,0.248,0.317h1.656c1.093,0,1.34,0.564,1.34,1.798v8.389c0,4.618,0.141,6.979,0.564,8.566
			c0.563,2.22,1.798,3.772,4.194,4.723C31.603,25.345,33.366,25.591,35.199,25.591z"/>
		<path fill-rule="evenodd" clip-rule="evenodd" fill="#0D3A59" d="M63.388,13.438c0-1.57-0.076-3.983,0.115-5.745
			c0.076-0.536,0.268-0.804,1.226-0.804h0.382c0.153,0,0.23-0.115,0.23-0.269V5.816c0-0.229-0.077-0.306-0.269-0.306
			c-0.269,0-1.608,0.115-2.412,0.115c-1.226,0-2.873-0.115-3.141-0.115c-0.191,0-0.268,0.077-0.268,0.191V6.62
			c0,0.191,0.076,0.269,0.268,0.269h0.65c0.651,0,1.226,0.229,1.417,0.689c0.192,0.46,0.308,2.681,0.308,3.6
			c0.076,1.226,0.114,2.413,0.114,4.596v2.528h-0.153c-0.46-0.499-4.021-4.979-4.711-5.783c-0.804-0.958-5.208-6.511-5.323-6.665
			c-0.153-0.229-0.383-0.306-0.919-0.306c-0.46,0-1.264,0.077-1.876,0.077c-0.422,0-1.035-0.038-1.532-0.077
			c-0.498,0-0.919-0.038-0.996-0.038c-0.153,0-0.229,0.115-0.229,0.229v0.92c0,0.152,0.076,0.229,0.229,0.229h0.345
			c1.072,0,2.03,0.651,2.03,2.03v4.021c0,4.328-0.077,7.047-0.115,7.506c-0.114,0.881-0.728,1.149-1.11,1.149h-0.882
			c-0.113,0-0.152,0.038-0.152,0.115v0.996c0,0.191,0.039,0.268,0.114,0.268c0.307,0,2.03-0.114,2.566-0.114
			c1.11,0,2.643,0.114,2.91,0.114c0.192,0,0.192-0.076,0.192-0.229v-0.919c0-0.153,0-0.229-0.192-0.229h-0.805
			c-0.383,0-0.804-0.422-0.918-1.302c-0.077-0.345-0.23-4.175-0.23-6.473V8.574h0.078c0.611,0.689,3.714,4.826,4.633,5.898
			c0.422,0.498,2.067,2.451,3.83,4.557c1.57,1.877,2.872,3.447,3.141,3.716c0.153,0.115,0.535,0.382,0.88,0.382
			c0.46,0,0.575-0.382,0.575-0.728V13.438z"/>
		<path fill-rule="evenodd" clip-rule="evenodd" fill="#0D3A59" d="M71.729,13.055c0-0.268,0.038-4.826,0.038-5.209
			c0.038-0.804,0.384-0.957,1.417-0.957h0.65c0.191,0,0.23-0.115,0.23-0.269V5.701c0-0.115-0.077-0.191-0.23-0.191
			c-0.306,0-2.259,0.115-3.369,0.115c-1.801,0.039-4.175-0.115-4.405-0.115c-0.152,0-0.229,0.077-0.229,0.229V6.62
			c0,0.153,0.038,0.269,0.229,0.269h0.69c1.608,0,1.953,0.383,1.953,0.804c0,0.537,0.076,4.366,0.076,4.979v1.685
			c0,1.302-0.038,6.167-0.076,6.512c-0.076,0.688-0.689,0.728-1.646,0.728h-0.844c-0.153,0-0.229,0.115-0.229,0.229v0.843
			c0,0.191,0.075,0.306,0.229,0.306c0.229,0,2.451-0.114,3.754-0.114c1.723,0,3.715,0.114,4.021,0.114
			c0.191,0,0.229-0.114,0.229-0.268v-0.919c0-0.115-0.038-0.191-0.229-0.191h-0.574c-1.109,0-1.569-0.537-1.646-1.417
			c-0.038-0.575-0.038-4.979-0.038-5.208V13.055z"/>
		<path fill-rule="evenodd" clip-rule="evenodd" fill="#0D3A59" d="M109.994,14.126c-0.038,2.336,0,4.596-0.038,6.474
			c0,0.841-0.46,0.996-1.378,0.996h-0.46c-0.153,0-0.23,0.076-0.23,0.191v0.881c0,0.191,0.077,0.306,0.23,0.306
			c0.268,0,2.221-0.114,3.178-0.114c1.265,0,3.332,0.114,3.601,0.114c0.229,0,0.306-0.076,0.306-0.268v-0.919
			c0-0.115-0.076-0.191-0.229-0.191h-0.995c-0.767,0-0.996-0.422-1.073-0.958v-4.136v-0.919c0.269-0.077,0.613-0.077,0.996-0.077
			c1.608,0,2.184,0.843,3.562,3.217c0.345,0.574,2.029,3.677,2.758,4.213c0.65-0.038,1.57-0.076,2.451-0.076
			c0.383,0,0.843,0.038,1.188,0.038c0.383,0.038,0.688,0.076,0.767,0.076c0.152,0,0.229-0.114,0.229-0.268V21.94
			c0-0.229-0.039-0.344-0.192-0.344c-0.689,0-1.188-0.039-1.724-0.422c-0.728-0.536-1.608-1.686-2.144-2.451
			c-1.572-2.221-2.337-3.409-3.218-3.6v-0.077c3.025-1.072,4.519-2.604,4.519-5.246c0-0.881-0.497-1.992-1.34-2.795
			c-0.958-0.843-2.681-1.494-4.979-1.494c-0.497,0-3.83,0.115-4.289,0.115c-0.689,0-3.064-0.115-3.255-0.115
			c-0.154,0-0.23,0.077-0.23,0.191V6.62c0,0.153,0.038,0.269,0.153,0.269h0.383c1.072,0,1.417,0.421,1.455,1.187v3.677V14.126z
			 M112.904,7.578c0-0.689,0.576-0.842,1.15-0.842c1.53,0,2.604,0.345,3.638,0.996c0.689,0.459,1.264,1.494,1.264,2.643
			c0,0.996-0.651,3.983-4.901,3.983c-0.499,0-0.882-0.038-1.15-0.076V7.578z"/>
		<path fill-rule="evenodd" clip-rule="evenodd" fill="#0D3A59" d="M130.888,23.319c3.485,0,5.323-2.451,5.323-5.324
			c0-1.915-0.459-2.872-1.225-3.676c-0.958-0.996-2.375-1.417-4.136-2.068c-0.729-0.268-2.107-0.843-2.681-1.57
			c-0.422-0.499-0.613-1.303-0.613-1.877c0-0.689,0.613-2.336,2.719-2.336c1.11,0,1.953,0.384,2.527,1.035
			c0.804,0.919,1.11,2.259,1.342,2.719c0.038,0.115,0.114,0.191,0.229,0.153l0.689-0.153c0.115-0.038,0.153-0.115,0.153-0.229
			c-0.038-0.536-0.383-3.025-0.383-4.29c0-0.191-0.039-0.345-0.345-0.345s-0.422,0-0.498,0.115l-0.153,0.268
			c-0.077,0.191-0.269,0.153-0.65-0.076c-0.46-0.23-1.265-0.498-2.719-0.498c-1.379,0-2.605,0.345-3.601,1.149
			c-0.844,0.728-1.646,1.915-1.646,3.217c0,1.876,0.459,3.102,1.34,3.944c1.148,1.034,2.987,1.724,3.754,1.992
			c2.028,0.767,3.522,1.723,3.522,3.906c0,1.647-1.838,2.604-3.063,2.604c-1.417,0-2.682-0.766-3.256-1.915
			c-0.688-1.263-0.688-2.068-0.688-2.604c0-0.153-0.153-0.23-0.307-0.269l-0.689-0.076c-0.153,0-0.23,0.114-0.268,0.268
			c-0.039,0.613-0.308,3.677-0.422,4.75c-0.038,0.192,0.077,0.345,0.307,0.422c0.307,0.076,0.498,0,0.573-0.192l0.116-0.306
			c0.075-0.307,0.307-0.269,0.573-0.077C127.595,22.668,128.935,23.319,130.888,23.319z"/>
		<path fill-rule="evenodd" clip-rule="evenodd" fill="#0D3A59" d="M142.698,13.055c0-0.268,0.039-4.826,0.039-5.209
			c0.039-0.804,0.383-0.957,1.417-0.957h0.651c0.191,0,0.229-0.115,0.229-0.269V5.701c0-0.115-0.077-0.191-0.229-0.191
			c-0.308,0-2.26,0.115-3.37,0.115c-1.8,0.039-4.175-0.115-4.405-0.115c-0.152,0-0.229,0.077-0.229,0.229V6.62
			c0,0.153,0.038,0.269,0.229,0.269h0.69c1.608,0,1.953,0.383,1.953,0.804c0,0.537,0.076,4.366,0.076,4.979v1.685
			c0,1.302-0.038,6.167-0.076,6.512c-0.076,0.688-0.689,0.728-1.646,0.728h-0.843c-0.154,0-0.229,0.115-0.229,0.229v0.843
			c0,0.191,0.074,0.306,0.229,0.306c0.229,0,2.451-0.114,3.753-0.114c1.724,0,3.715,0.114,4.021,0.114
			c0.191,0,0.23-0.114,0.23-0.268v-0.919c0-0.115-0.039-0.191-0.23-0.191h-0.574c-1.109,0-1.569-0.537-1.646-1.417
			c-0.039-0.575-0.039-4.979-0.039-5.208V13.055z"/>
		<path fill-rule="evenodd" clip-rule="evenodd" fill="#0D3A59" d="M80.954,35.749c0-0.268,0.038-4.826,0.038-5.208
			c0.038-0.804,0.383-0.958,1.417-0.958h0.65c0.191,0,0.23-0.115,0.23-0.268v-0.919c0-0.115-0.077-0.191-0.23-0.191
			c-0.307,0-2.26,0.115-3.37,0.115c-1.8,0.039-4.175-0.115-4.403-0.115c-0.154,0-0.23,0.076-0.23,0.229v0.881
			c0,0.153,0.039,0.268,0.23,0.268h0.688c1.609,0,1.954,0.383,1.954,0.804c0,0.536,0.076,4.366,0.076,4.979v1.685
			c0,1.303-0.038,6.167-0.076,6.512c-0.077,0.689-0.689,0.729-1.646,0.729h-0.843c-0.152,0-0.229,0.113-0.229,0.229v0.843
			c0,0.192,0.077,0.307,0.229,0.307c0.23,0,2.451-0.114,3.753-0.114c1.724,0,3.716,0.114,4.021,0.114c0.192,0,0.23-0.114,0.23-0.269
			v-0.918c0-0.116-0.038-0.191-0.23-0.191H82.64c-1.112,0-1.572-0.537-1.647-1.418c-0.038-0.574-0.038-4.979-0.038-5.209V35.749z"/>
		<path fill-rule="evenodd" clip-rule="evenodd" fill="#0D3A59" d="M86.767,36.82c-0.038,2.338,0,4.598-0.038,6.475
			c0,0.842-0.46,0.996-1.379,0.996h-0.46c-0.154,0-0.229,0.075-0.229,0.191v0.88c0,0.192,0.075,0.307,0.229,0.307
			c0.268,0,2.222-0.114,3.179-0.114c1.264,0,3.332,0.114,3.6,0.114c0.23,0,0.307-0.076,0.307-0.269v-0.918
			c0-0.116-0.076-0.191-0.229-0.191h-0.996c-0.766,0-0.995-0.422-1.072-0.959v-4.136v-0.92C89.945,38.2,90.29,38.2,90.673,38.2
			c1.608,0,2.183,0.843,3.562,3.218c0.345,0.574,2.029,3.676,2.758,4.213c0.65-0.038,1.57-0.076,2.451-0.076
			c0.383,0,0.843,0.038,1.188,0.038c0.383,0.038,0.688,0.076,0.766,0.076c0.153,0,0.23-0.114,0.23-0.269v-0.766
			c0-0.23-0.039-0.344-0.192-0.344c-0.689,0-1.188-0.039-1.724-0.422c-0.728-0.537-1.608-1.686-2.145-2.451
			c-1.571-2.222-2.336-3.408-3.217-3.601v-0.076c3.025-1.073,4.519-2.604,4.519-5.248c0-0.88-0.497-1.991-1.34-2.796
			c-0.959-0.842-2.681-1.493-4.979-1.493c-0.498,0-3.83,0.115-4.289,0.115c-0.69,0-3.064-0.115-3.257-0.115
			c-0.152,0-0.229,0.076-0.229,0.191v0.919c0,0.153,0.038,0.268,0.153,0.268h0.384c1.072,0,1.417,0.422,1.455,1.188v3.677V36.82z
			 M89.896,30.272c0-0.689,0.575-0.843,1.149-0.843c1.532,0,2.604,0.345,3.639,0.996c0.689,0.459,1.264,1.494,1.264,2.643
			c0,0.996-0.65,3.982-4.902,3.982c-0.497,0-0.882-0.039-1.149-0.075V30.272z"/>
		<path fill-rule="evenodd" clip-rule="evenodd" fill="#0D3A59" d="M115.517,40.345c0-0.651,0.727-0.804,1.11-0.804h0.651
			c0.113,0,0.19-0.114,0.19-0.23v-0.918c0-0.116-0.077-0.192-0.229-0.192c-0.153,0-1.877,0.076-3.295,0.076
			c-2.067,0-3.944-0.076-4.174-0.076c-0.154,0-0.19,0.076-0.19,0.192v0.918c0,0.116,0.036,0.191,0.19,0.191h0.919
			c0.995,0,1.877,0.27,1.877,1.149v1.418c0,0.766-0.076,1.263-0.574,1.646c-0.613,0.497-1.839,0.842-3.179,0.842
			c-1.072,0-2.605-0.573-3.676-1.723c-1.494-1.57-2.338-3.754-2.338-6.702c0-1.725,0.844-3.754,1.991-5.018
			c1.417-1.532,2.911-1.953,4.099-1.953c1.762,0,2.834,0.766,3.867,1.838c0.92,0.919,1.571,2.106,1.839,2.72
			c0.116,0.306,0.191,0.345,0.307,0.306l0.728-0.229c0.115-0.039,0.153-0.115,0.153-0.307c-0.075-0.689-0.575-4.251-0.575-4.443
			c0-0.268-0.076-0.421-0.421-0.421c-0.305,0-0.421,0.115-0.497,0.268l-0.192,0.345c-0.076,0.115-0.229,0.115-0.536-0.153
			c-0.727-0.537-2.527-1.226-4.365-1.226c-2.72,0-5.056,0.804-6.856,2.336c-1.837,1.608-2.833,3.944-2.833,6.28
			c0,2.986,0.767,5.056,2.298,6.741c1.8,1.991,4.863,2.796,6.854,2.796c2.451,0,4.52-0.535,6.549-1.531
			c0.269-0.116,0.422-0.23,0.422-0.422s-0.114-0.421-0.114-0.766V40.345z"/>
		<path fill-rule="evenodd" clip-rule="evenodd" fill="#0D3A59" d="M122.989,35.749c0-0.268,0.039-4.826,0.039-5.208
			c0.037-0.804,0.383-0.958,1.417-0.958h0.65c0.191,0,0.229-0.115,0.229-0.268v-0.919c0-0.115-0.075-0.191-0.229-0.191
			c-0.307,0-2.259,0.115-3.37,0.115c-1.8,0.039-4.175-0.115-4.404-0.115c-0.154,0-0.229,0.076-0.229,0.229v0.881
			c0,0.153,0.038,0.268,0.229,0.268h0.688c1.608,0,1.954,0.383,1.954,0.804c0,0.536,0.077,4.366,0.077,4.979v1.685
			c0,1.303-0.039,6.167-0.077,6.512c-0.077,0.689-0.689,0.729-1.646,0.729h-0.843c-0.153,0-0.23,0.113-0.23,0.229v0.843
			c0,0.192,0.077,0.307,0.23,0.307c0.229,0,2.451-0.114,3.753-0.114c1.724,0,3.715,0.114,4.022,0.114
			c0.19,0,0.229-0.114,0.229-0.269v-0.918c0-0.116-0.039-0.191-0.229-0.191h-0.575c-1.111,0-1.571-0.537-1.646-1.418
			c-0.039-0.574-0.039-4.979-0.039-5.209V35.749z"/>
		<path fill-rule="evenodd" clip-rule="evenodd" fill="#0D3A59" d="M143.608,36.133c0-1.571-0.076-3.984,0.115-5.746
			c0.076-0.536,0.268-0.804,1.226-0.804h0.383c0.153,0,0.23-0.115,0.23-0.268v-0.804c0-0.23-0.077-0.307-0.269-0.307
			c-0.269,0-1.608,0.115-2.412,0.115c-1.226,0-2.873-0.115-3.142-0.115c-0.191,0-0.269,0.076-0.269,0.191v0.919
			c0,0.191,0.077,0.268,0.269,0.268h0.651c0.651,0,1.226,0.23,1.417,0.689c0.192,0.459,0.307,2.682,0.307,3.601
			c0.076,1.225,0.114,2.412,0.114,4.595v2.528h-0.152c-0.46-0.498-4.021-4.979-4.711-5.783c-0.805-0.957-5.209-6.511-5.323-6.664
			c-0.153-0.229-0.384-0.306-0.919-0.306c-0.459,0-1.264,0.077-1.878,0.077c-0.42,0-1.032-0.039-1.53-0.077
			c-0.498,0-0.92-0.038-0.996-0.038c-0.153,0-0.229,0.115-0.229,0.229v0.919c0,0.153,0.076,0.229,0.229,0.229h0.345
			c1.071,0,2.029,0.652,2.029,2.03v4.021c0,4.327-0.076,7.047-0.114,7.507c-0.115,0.881-0.729,1.149-1.11,1.149h-0.881
			c-0.116,0-0.154,0.037-0.154,0.113V45.4c0,0.192,0.038,0.269,0.115,0.269c0.306,0,2.03-0.114,2.565-0.114
			c1.111,0,2.643,0.114,2.91,0.114c0.193,0,0.193-0.076,0.193-0.229v-0.92c0-0.153,0-0.229-0.193-0.229h-0.804
			c-0.383,0-0.804-0.422-0.919-1.303c-0.076-0.344-0.229-4.176-0.229-6.473v-5.247h0.077c0.612,0.689,3.715,4.825,4.634,5.897
			c0.421,0.498,2.067,2.451,3.829,4.559c1.57,1.876,2.873,3.447,3.142,3.715c0.153,0.115,0.535,0.382,0.88,0.382
			c0.46,0,0.574-0.382,0.574-0.728V36.133z"/>
		<path fill="#0D3A59" d="M50.108,26.118h-2.157c-0.121,0-0.181-0.119-0.132-0.288l0.097-0.412c0.049-0.169,0.216-0.558,0.41-0.558
			h2.107c0.729-2.084,1.434-3.78,2.719-5.21c0.678-0.775,2.01-1.648,3.587-1.648c1.404,0,2.181,0.848,2.181,1.43
			c0,0.751-0.484,1.115-0.969,1.115c-0.776,0-0.994-0.437-1.068-0.97c-0.023-0.243-0.266-0.703-0.992-0.703
			c-2.255,0-2.742,3.202-3.541,5.916c0,0,3.367,0.09,6.117,0.09c2.962,0,4.548-0.105,4.864-0.105c0.317,0,0.354,0.105,0.354,0.247
			v0.811c0,0.176-0.036,0.317-0.282,0.317H61.71c-0.986,0-1.48,0.317-1.48,0.917c0,0.282,0.035,0.705,0.141,1.198
			c0.212,1.27,1.517,5.463,2.151,7.438c0.423,1.34,2.467,7.404,3.277,9.553c0.81-1.656,3.56-8.918,3.842-9.729
			c0.354-0.951,1.693-5.005,2.222-6.557c0.281-0.881,0.493-1.516,0.493-2.01c0-0.422-0.247-0.81-1.128-0.81H70.31
			c-0.141,0-0.176-0.105-0.176-0.317v-0.811c0-0.177,0.035-0.247,0.212-0.247c0.318,0,1.939,0.105,4.16,0.105
			c2.572,0,3.454-0.105,3.771-0.105c0.211,0,0.246,0.07,0.246,0.247v0.881c0,0.141-0.035,0.247-0.246,0.247h-0.952
			c-1.163,0-1.832,0.564-2.503,1.375c-0.916,1.127-3.736,8.355-4.335,9.833c-0.423,1.165-4.97,12.375-5.146,12.727
			c-0.141,0.282-0.317,0.459-0.493,0.459c-0.283,0-0.423-0.354-0.6-0.811c-1.128-3.243-3.983-11.282-4.441-12.551l-0.353-1.198
			c-0.847-2.503-2.503-7.614-2.961-8.671c-0.353-0.812-0.706-1.164-1.445-1.164l-3.277-0.031c-0.631,1.963-1.745,6.11-2.957,9.212
			c-1.479,3.781-3.199,6.473-5.793,6.473c-0.97,0-1.745-0.655-1.745-1.432c0-0.557,0.411-1.042,1.042-1.042
			c0.703,0,1.067,0.679,1.139,1.091c0.05,0.242,0.219,0.412,0.413,0.412c1.162,0,2.472-2.036,3.78-6.52L50.108,26.118z"/>
		<path fill="#0D3A59" d="M145.928,5.452c0.035-0.027,0.062-0.03,0.149-0.021c0.595,0.066,2.769,0.271,6.976,0.271h1.531
			c1.252,0,2.6-0.051,4.06-0.112c0.734-0.021,5.233,0.035,6.152,0.035c0.843,0,3.446-0.115,3.714-0.115
			c0.153,0,0.269,0.077,0.269,0.268V6.62c0,0.153-0.037,0.269-0.269,0.269h-0.574c-0.688,0-0.728,0.421-0.574,0.651
			c0.229,0.345,3.409,5.438,4.021,6.357c0.574-0.957,3.753-5.591,3.906-5.898c0.307-0.612,0.345-1.11-0.498-1.11h-0.612
			c-0.191,0-0.269-0.115-0.269-0.269V5.777c0-0.153,0.077-0.268,0.269-0.268c0.229,0,2.145,0.115,3.294,0.115
			c0.688,0,2.029-0.115,2.259-0.115c0.192,0,0.269,0.077,0.269,0.306V6.62c0,0.191-0.076,0.269-0.23,0.269h-0.382
			c-0.613,0-1.034,0.115-1.38,0.306c-0.573,0.307-5.016,6.549-5.897,7.89v3.217c0.039,0.957,0,1.992,0.077,2.451
			c0.076,0.804,0.688,0.843,1.378,0.843h0.498c0.191,0,0.268,0.076,0.268,0.191v0.919c0,0.153-0.076,0.268-0.305,0.268
			c-0.231,0-2.375-0.114-3.64-0.114c-0.842,0-3.063,0.114-3.293,0.114c-0.191,0-0.269-0.076-0.269-0.306v-0.843
			c0-0.115,0.077-0.229,0.229-0.229h0.575c1.225,0,1.455-0.229,1.494-0.766c0.038-0.345,0.038-1.724,0.038-3.983v-1.379
			c-0.346-0.689-5.018-7.544-5.631-8.119c-0.323-0.324-0.867-0.429-1.213-0.454c0.229,1.039,0.537,2.398,0.66,3.058
			c0.037,0.153-0.039,0.229-0.191,0.306l-0.651,0.191c-0.23,0.077-0.346,0.039-0.422-0.153c-0.46-0.958-1.11-2.222-1.915-2.949
			c-0.957-0.344-3.759-0.382-4.448-0.382v6.434c0,4.021,0,6.894,0.038,7.201c0.076,0.612,0.269,0.996,0.882,0.996h1.454
			c0.191,0,0.27,0.115,0.27,0.344v0.805c0,0.115-0.078,0.229-0.27,0.229c-0.268,0-2.643-0.114-3.906-0.114
			c-1.072,0-3.561,0.114-3.868,0.114c-0.229,0-0.306-0.114-0.306-0.344v-0.766c0-0.191,0.076-0.268,0.23-0.268h1.53
			c0.575,0,0.844-0.307,0.882-0.613c0.115-1.456,0.115-3.485,0.115-5.783V6.966c-0.729,0-2.879-0.039-4.296,0.344
			c-0.957,0.728-1.762,1.953-2.26,2.949c-0.077,0.153-0.191,0.268-0.345,0.191l-0.689-0.268c-0.191-0.077-0.191-0.229-0.152-0.383
			c0.221-0.696,0.886-3.058,1.198-4.217C145.881,5.502,145.891,5.48,145.928,5.452z"/>
		<path fill="#0D3A59" d="M160.062,37.702h5.209c-0.154-0.536-1.953-6.28-2.029-6.587c-0.077-0.23-0.115-0.383-0.23-0.383
			s-0.191,0.115-0.307,0.421S160.253,37.32,160.062,37.702z M152.113,35.749v1.915c0,0.229,0,4.635,0.039,5.209
			c0.077,0.881,0.536,1.418,1.646,1.418h0.442c0.65,0,1.264-0.383,1.57-0.805c0.267-0.307,2.221-4.903,3.14-6.818
			c0.268-0.535,2.527-5.745,2.758-6.396c0.077-0.229,0.307-0.651,0.038-0.766c-0.077-0.077-0.191-0.268-0.153-0.383
			c-0.038-0.077,0.039-0.192,0.384-0.268c0.727-0.115,1.799-0.804,2.144-1.11c0.077-0.153,0.23-0.269,0.46-0.269
			c0.23,0,0.307,0.153,0.383,0.421c0.536,1.532,2.49,7.008,2.988,8.541c0.574,1.915,2.221,6.435,2.488,6.818
			c0.499,0.688,1.148,1.034,1.8,1.034h0.729c0.152,0,0.191,0.113,0.191,0.229v0.805c0,0.115-0.039,0.345-0.269,0.345
			c-0.46,0-2.49-0.114-3.369-0.114c-0.729,0-2.988,0.114-3.485,0.114c-0.269,0-0.308-0.19-0.308-0.345V44.52
			c0-0.115,0.039-0.229,0.192-0.229h0.612c0.46,0,0.612-0.346,0.612-0.651c-0.152-0.767-1.186-3.831-1.492-4.712h-6.166
			c-0.153,0.46-1.379,3.639-1.532,4.1c-0.23,0.765-0.115,1.264,0.689,1.264h0.957c0.229,0,0.268,0.113,0.268,0.267V45.4
			c0,0.154-0.039,0.269-0.229,0.269c-0.306,0-2.337-0.114-2.949-0.114c-0.476,0-5.17,0-6.339,0c-1.304,0-3.524,0.114-3.754,0.114
			c-0.153,0-0.229-0.114-0.229-0.307V44.52c0-0.115,0.076-0.229,0.229-0.229h0.842c0.959,0,1.57-0.039,1.647-0.729
			c0.039-0.345,0.076-5.209,0.076-6.512v-1.685c0-0.613-0.076-4.443-0.076-4.979c0-0.421-0.344-0.804-1.953-0.804h-0.689
			c-0.191,0-0.23-0.115-0.23-0.268v-0.881c0-0.153,0.078-0.229,0.23-0.229c0.23,0,2.604,0.153,4.403,0.115
			c1.111,0,3.064-0.115,3.371-0.115c0.153,0,0.23,0.076,0.23,0.191v0.919c0,0.153-0.039,0.268-0.23,0.268h-0.651
			c-1.033,0-1.378,0.153-1.416,0.958C152.152,30.923,152.113,35.481,152.113,35.749z"/>
		<path fill="#0D3A59" d="M82.062,5.777v0.882c0,0.152-0.114,0.229-0.268,0.229h-0.881c-0.499,0-1.072,0.077-1.072,0.574
			c0,0.881,0.65,2.375,1.686,5.592c0.306,0.957,1.722,5.4,1.952,6.012h0.116c0.229-0.804,2.104-5.552,2.297-6.127
			c1.455-4.251,1.953-5.286,1.953-5.668c0-0.191-0.154-0.383-0.804-0.383h-0.423c-0.153,0-0.229-0.077-0.229-0.269V5.739
			c0-0.115,0.075-0.229,0.229-0.229c0.23,0,2.223,0.115,3.104,0.115c0.638,0,5.296,0,5.854,0l8.578-0.038
			c0.383,0,0.881-0.077,1.034-0.077c0.076,0,0.153,0.077,0.229,0.536c0.078,0.345,1.15,3.639,1.227,3.907
			c0.038,0.153,0.038,0.229-0.039,0.268l-0.612,0.269c-0.076,0.038-0.229,0.038-0.345-0.153c-0.077-0.115-1.914-2.26-2.565-2.873
			c-0.46-0.421-1.073-0.574-1.455-0.574l-4.06-0.077v6.511c0.229,0,2.489-0.115,2.795-0.191c0.996-0.268,1.379-0.804,1.379-1.991
			c0-0.153,0.038-0.191,0.191-0.191l0.844,0.038c0.152,0,0.268,0.076,0.229,0.229c-0.076,0.344-0.076,2.375-0.076,2.719
			c0,0.843,0.115,2.031,0.153,2.528c0,0.154-0.077,0.192-0.191,0.192l-0.804,0.076c-0.116,0-0.193,0-0.23-0.153
			c-0.191-0.957-0.422-1.57-1.416-1.799c-1.15-0.269-2.49-0.269-2.873-0.269v1.302c0,1.341,0.077,3.562,0.077,4.061
			c0,1.8,1.109,1.915,2.757,1.915c1.686,0,2.757-0.038,4.059-1.073c0.307-0.229,1.647-1.953,2.03-2.565
			c0.191-0.269,0.383-0.307,0.498-0.23l0.612,0.344c0.077,0.039,0.154,0.154,0.115,0.269l-1.379,4.06
			c-0.076,0.191-0.269,0.382-0.421,0.382c-0.269,0-2.299-0.114-10.34-0.114c-0.69,0-2.797,0.114-3.255,0.114
			c-0.193,0-0.23-0.114-0.23-0.268v-0.881c0-0.153,0.076-0.229,0.269-0.229h0.344c1.8,0,1.914-0.154,1.914-0.689v-5.784v-2.374
			c0-2.03-0.038-4.52-0.076-4.903c-0.115-0.804-0.345-0.957-1.876-0.957h-0.301h-0.082h-0.531c-0.728,0-1.265,0.229-1.609,0.574
			c-0.727,0.728-2.795,5.745-3.178,6.741c-0.346,0.804-3.485,8.311-3.792,8.808c-0.115,0.192-0.307,0.307-0.611,0.307
			c-0.308,0-0.499-0.268-0.613-0.574c-0.843-2.26-2.872-7.813-3.18-8.656L78.5,13.246c-0.65-1.762-1.801-5.247-2.068-5.63
			c-0.307-0.421-0.612-0.728-1.11-0.728h-0.383c-0.154,0-0.191-0.115-0.191-0.229V5.701c0-0.115,0.076-0.191,0.229-0.191
			c0.191,0,2.298,0.115,3.294,0.115c0.919,0,3.256-0.115,3.484-0.115C81.985,5.51,82.062,5.586,82.062,5.777z"/>
	</g>
	<g>
		<g>
			<path fill-rule="evenodd" clip-rule="evenodd" fill="#0D3A59" d="M42.475,57.456c0,0.518-0.04,4.371-0.06,5.307
				c0,0.476-0.06,0.952-0.557,0.952h-1.173c-0.079,0-0.139,0.041-0.139,0.121v0.516c0,0.098,0.04,0.139,0.139,0.139
				c0.458,0,1.054-0.06,2.762-0.06c1.432,0,2.126,0.06,2.503,0.06c0.12,0,0.159-0.041,0.159-0.139v-0.497
				c0-0.099-0.039-0.14-0.159-0.14h-0.974c-0.416,0-0.616-0.199-0.635-0.676c-0.02-1.39-0.04-4.45-0.04-4.986v-0.417
				c0-0.139,0.059-0.198,0.278-0.198h7.271c0.338,0,0.438,0.019,0.438,0.237v0.278c0,0.717-0.039,3.914-0.06,4.848
				c0,0.537-0.06,0.914-0.536,0.914h-1.251c-0.12,0-0.16,0.041-0.16,0.14v0.497c0,0.079,0.04,0.139,0.119,0.139
				c0.597,0,1.232-0.06,2.961-0.06c1.45,0,2.126,0.06,2.504,0.06c0.119,0,0.157-0.041,0.157-0.16v-0.476
				c0-0.099-0.038-0.14-0.178-0.14h-0.874c-0.597,0-0.795-0.278-0.795-0.992c-0.021-1.133-0.06-4.908-0.06-5.544v-0.676
				c0-0.735,0.039-4.092,0.039-4.37c0-0.716,0.06-1.054,0.637-1.054h0.894c0.119,0,0.159-0.02,0.159-0.139v-0.477
				c0-0.12-0.021-0.159-0.159-0.159c-0.377,0-1.192,0.06-2.542,0.06c-1.353,0-2.205-0.06-2.623-0.06c-0.101,0-0.12,0.039-0.12,0.119
				v0.517c0,0.101,0.041,0.139,0.14,0.139h1.033c0.576,0,0.655,0.378,0.655,1.013c0,0.239,0.06,3.001,0.06,4.134v0.198
				c0,0.258-0.1,0.299-0.396,0.299H44.54c-0.18,0-0.238-0.061-0.238-0.16v-0.337c0-1.112,0.04-3.735,0.04-4.014
				c0-0.795,0.1-1.133,0.774-1.133h1.013c0.119,0,0.159-0.038,0.159-0.159v-0.516c0-0.08-0.06-0.1-0.198-0.1
				c-0.378,0-1.093,0.06-2.643,0.06c-1.748,0-2.384-0.06-2.78-0.06c-0.101,0-0.16,0.039-0.16,0.139v0.477
				c0,0.121,0.021,0.159,0.119,0.159h0.934c0.736,0,0.875,0.278,0.875,1.292c0,0.318,0.04,2.999,0.04,4.231V57.456z"/>
			<path fill-rule="evenodd" clip-rule="evenodd" fill="#0D3A59" d="M59.833,54.596l2.488,0.048c0.234,0,0.61,0.094,0.892,0.353
				c0.399,0.374,1.526,1.689,1.573,1.76c0.07,0.117,0.164,0.117,0.211,0.093l0.376-0.163c0.047-0.024,0.047-0.07,0.022-0.165
				c-0.046-0.163-0.704-2.183-0.75-2.394c-0.048-0.282-0.095-0.328-0.141-0.328c-0.095,0-0.4,0.046-0.635,0.046l-5.258,0.023
				c-0.351,0-1.643-0.069-1.994-0.069c-0.093,0-0.118,0.069-0.118,0.117v0.562c0,0.117,0.025,0.165,0.095,0.165h0.234
				c0.938,0,1.079,0.094,1.149,0.587c0.023,0.234,0.048,1.76,0.048,3.004v1.455v3.544c0,0.328-0.07,0.423-1.173,0.423h-0.212
				c-0.116,0-0.164,0.047-0.164,0.141v0.54c0,0.094,0.022,0.164,0.141,0.164c0.281,0,1.572-0.07,1.994-0.07
				c4.929,0,6.174,0.07,6.338,0.07c0.094,0,0.212-0.118,0.258-0.234l0.845-2.488c0.024-0.071-0.023-0.142-0.07-0.165l-0.374-0.21
				c-0.071-0.047-0.188-0.024-0.307,0.141c-0.234,0.376-1.056,1.431-1.243,1.572c-0.799,0.633-1.455,0.656-2.487,0.656
				c-1.011,0-1.691-0.069-1.691-1.174c0-0.303-0.047-1.665-0.047-2.485v-0.799c0.235,0,1.057,0,1.761,0.163
				c0.609,0.143,0.751,0.517,0.868,1.104c0.024,0.094,0.07,0.094,0.142,0.094l0.491-0.049c0.071,0,0.118-0.022,0.118-0.117
				c-0.022-0.304-0.094-1.032-0.094-1.548c0-0.211,0-1.456,0.047-1.667c0.024-0.094-0.047-0.141-0.142-0.141l-0.516-0.023
				c-0.094,0-0.117,0.023-0.117,0.118c0,0.728-0.234,1.056-0.845,1.22c-0.188,0.048-1.572,0.117-1.714,0.117V54.596z"/>
			<path fill-rule="evenodd" clip-rule="evenodd" fill="#0D3A59" d="M107.036,58.469c0-0.54,0.022-2.91,0.022-3.262
				c0-0.306,0.142-0.563,0.518-0.563h0.61c0.187,0,0.21-0.071,0.21-0.165v-0.446c0-0.164-0.023-0.233-0.21-0.233
				c-0.188,0-1.597,0.069-1.996,0.069c-0.517,0-1.971-0.069-2.229-0.069c-0.117,0-0.165,0.046-0.165,0.164v0.54
				c0,0.093,0.048,0.141,0.165,0.141h0.681c0.305,0,0.54,0.258,0.54,0.751c0,0.188,0.046,2.018,0.046,2.651v0.212
				c0,0.188-0.094,0.234-0.329,0.234h-5.304c-0.14,0-0.188-0.07-0.188-0.188v-0.188c0-0.704,0.024-2.651,0.024-2.862
				c0-0.353,0.233-0.61,0.634-0.61h0.656c0.165,0,0.188-0.048,0.188-0.165v-0.492c0-0.142-0.048-0.188-0.188-0.188
				c-0.257,0-1.595,0.069-2.111,0.069c-0.587,0-2.112-0.069-2.371-0.069c-0.164,0-0.188,0.046-0.188,0.188v0.492
				c0,0.117,0.048,0.165,0.188,0.165h0.634c0.422,0,0.68,0.211,0.68,0.892c0,0.235,0.048,2.064,0.048,3.004v0.658
				c0,0.375-0.048,3.285-0.048,3.59c-0.022,0.493-0.046,0.869-0.586,0.869h-0.728c-0.117,0-0.164,0.023-0.164,0.141v0.54
				c0,0.117,0.047,0.164,0.164,0.164c0.329,0,1.854-0.07,2.3-0.07c0.517,0,1.832,0.07,2.113,0.07c0.094,0,0.141-0.07,0.141-0.164
				V63.82c0-0.117-0.047-0.164-0.141-0.164h-0.705c-0.327,0-0.491-0.142-0.516-0.869c-0.024-0.445-0.024-2.746-0.024-3.145v-0.212
				c0-0.116,0.049-0.142,0.235-0.142h5.234c0.258,0,0.352,0.025,0.352,0.188v0.212c0,0.424-0.046,2.816-0.046,3.145
				c0,0.539-0.071,0.822-0.424,0.822h-0.914c-0.118,0-0.166,0.047-0.166,0.141v0.54c0,0.094,0.048,0.164,0.213,0.164
				c0.375,0,1.782-0.07,2.275-0.07c0.751,0,1.949,0.07,2.16,0.07c0.141,0,0.188-0.047,0.188-0.164V63.82
				c0-0.094-0.022-0.164-0.118-0.164h-0.681c-0.492,0-0.633-0.234-0.657-1.15c0-0.21-0.022-3.028-0.022-3.521V58.469z"/>
			<path fill="#0D3A59" d="M85.573,53.674c0.019-0.013,0.035-0.02,0.091-0.014c0.369,0.042,1.712,0.167,4.311,0.167h0.947
				c0.161,0,0.326-0.001,0.493-0.004c1.96-0.026,3.01-0.124,3.328-0.159c0.057-0.006,0.072,0,0.092,0.014
				c0.024,0.015,0.03,0.03,0.042,0.08c0.193,0.716,0.604,2.176,0.741,2.605c0.023,0.094,0.023,0.188-0.095,0.236l-0.425,0.166
				c-0.095,0.047-0.167-0.023-0.214-0.119c-0.308-0.614-0.805-1.372-1.396-1.822c-0.629-0.168-1.489-0.204-2.093-0.211v3.972
				c0,2.485,0,4.26,0.023,4.448c0.048,0.379,0.166,0.616,0.546,0.616h0.898c0.118,0,0.165,0.07,0.165,0.212v0.497
				c0,0.072-0.047,0.143-0.165,0.143c-0.166,0-1.634-0.07-2.414-0.07c-0.664,0-2.201,0.07-2.391,0.07
				c-0.142,0-0.188-0.07-0.188-0.213v-0.474c0-0.118,0.047-0.165,0.142-0.165h0.946c0.355,0,0.521-0.19,0.545-0.38
				c0.07-0.898,0.07-2.152,0.07-3.573v-5.088c-0.449,0-1.779-0.022-2.654,0.212c-0.592,0.451-1.089,1.209-1.396,1.822
				c-0.048,0.096-0.118,0.168-0.213,0.12l-0.427-0.167c-0.117-0.047-0.117-0.142-0.094-0.236c0.137-0.429,0.548-1.89,0.74-2.605
				C85.542,53.704,85.549,53.689,85.573,53.674z"/>
			<path fill-rule="evenodd" clip-rule="evenodd" fill="#0D3A59" d="M73.038,60.37H69.26c-0.095,0.282-0.846,2.229-0.939,2.511
				c-0.141,0.47-0.07,0.775,0.423,0.775h0.587c0.141,0,0.164,0.07,0.164,0.164v0.517c0,0.094-0.023,0.164-0.142,0.164
				c-0.188,0-1.431-0.07-1.807-0.07c-0.445,0-1.619,0.07-1.831,0.07c-0.093,0-0.093-0.118-0.093-0.212v-0.492
				c0-0.094,0-0.141,0.093-0.141h0.329c0.399,0,0.774-0.234,0.963-0.493c0.164-0.188,1.361-3.005,1.925-4.178
				c0.163-0.329,1.549-3.521,1.689-3.921c0.046-0.141,0.188-0.398,0.023-0.469c-0.048-0.046-0.119-0.164-0.094-0.234
				c-0.025-0.047,0.022-0.117,0.234-0.164c0.445-0.07,1.104-0.493,1.314-0.681c0.047-0.095,0.14-0.163,0.281-0.163
				s0.188,0.093,0.234,0.257c0.329,0.939,1.525,4.294,1.831,5.235c0.352,1.173,1.361,3.941,1.526,4.177
				c0.304,0.423,0.704,0.634,1.103,0.634h1.374c0.422,0,0.633-0.211,0.657-0.423c0-0.376,0.047-3.756,0.047-4.647V57.74
				c0-0.962-0.024-2.393-0.047-2.558c-0.047-0.398-0.117-0.539-0.963-0.539h-0.353c-0.093,0-0.116-0.071-0.116-0.165v-0.562
				c0-0.071,0.047-0.117,0.116-0.117c0.165,0,1.362,0.069,2.23,0.069c0.774,0,2.136-0.069,2.3-0.069
				c0.094,0,0.117,0.046,0.117,0.141v0.563c0,0.069-0.047,0.141-0.141,0.141h-0.353c-0.868,0-0.939,0.141-0.939,0.517
				c0,0.188-0.046,2.252-0.046,3.309v1.291c0,0.259,0,3.309,0.046,3.849c0.283,0,2.912,0.023,3.498-0.047
				c0.376-0.116,1.525-1.689,1.877-2.275c0.07-0.094,0.117-0.142,0.213-0.118l0.375,0.164c0.047,0.024,0.047,0.117,0.023,0.234
				c-0.023,0.118-0.634,2.512-0.729,2.91c-0.398-0.022-5.656-0.046-6.335-0.046c-0.376,0-0.869,0.023-1.315,0.023
				c-0.446,0.022-2.665-0.023-3.205-0.023c-0.445,0-1.83,0.07-2.135,0.07c-0.165,0-0.188-0.118-0.188-0.212v-0.492
				c0-0.07,0.022-0.141,0.116-0.141h0.376c0.282,0,0.375-0.211,0.375-0.399C73.86,62.787,73.226,60.91,73.038,60.37z M69.611,59.62
				c0.117-0.236,1.549-3.827,1.619-4.015c0.071-0.188,0.118-0.258,0.188-0.258s0.094,0.094,0.141,0.234
				c0.047,0.188,1.15,3.707,1.243,4.038H69.611z"/>
		</g>
		<g>
			<path fill-rule="evenodd" clip-rule="evenodd" fill="#0D3A59" d="M116.878,64.728c2.621,0,4.052-2.005,4.052-4.35
				c0-1.312-0.356-2.086-0.874-2.703c-0.714-0.874-1.827-1.211-3.197-1.647c-0.577-0.18-1.689-0.616-2.266-1.192
				c-0.497-0.517-0.615-1.173-0.615-1.729c0-1.015,0.635-2.324,2.403-2.324c0.935,0,1.629,0.277,2.165,0.854
				c0.814,0.854,1.072,1.63,1.232,2.205c0.02,0.06,0.06,0.079,0.119,0.06l0.238-0.06c0.08-0.019,0.1-0.06,0.1-0.158
				c-0.02-0.438-0.278-2.464-0.278-3.159c0-0.18-0.06-0.338-0.159-0.338c-0.099,0-0.159,0.04-0.259,0.119l-0.258,0.238
				c-0.1,0.1-0.199,0.12-0.378,0.02c-0.337-0.158-1.211-0.496-2.344-0.496c-1.072,0-2.066,0.277-2.781,0.953
				c-0.616,0.576-1.232,1.55-1.232,2.543c0,1.312,0.338,2.245,0.993,2.901c0.854,0.894,2.285,1.39,2.901,1.608
				c1.589,0.557,3.059,1.312,3.059,3.357c0,1.789-1.508,2.523-2.701,2.523c-1.093,0-2.186-0.536-2.781-1.471
				c-0.656-1.012-0.696-1.667-0.715-2.304c0-0.119-0.041-0.159-0.12-0.159l-0.298-0.021c-0.08,0-0.118,0-0.139,0.12
				c-0.061,0.576-0.259,3.1-0.338,3.596c-0.04,0.219,0.06,0.319,0.179,0.319c0.14,0,0.237-0.021,0.357-0.239
				c0.12-0.199,0.198-0.338,0.317-0.338c0.1,0,0.22,0.059,0.458,0.238C114.514,64.311,115.487,64.728,116.878,64.728z"/>
			<path fill-rule="evenodd" clip-rule="evenodd" fill="#0D3A59" d="M127,59.665c0.54-0.819,3.263-4.646,3.614-4.833
				c0.212-0.118,0.47-0.188,0.845-0.188h0.234c0.095,0,0.142-0.048,0.142-0.165v-0.492c0-0.142-0.047-0.188-0.164-0.188
				c-0.141,0-0.962,0.069-1.386,0.069c-0.702,0-1.878-0.069-2.018-0.069c-0.117,0-0.164,0.069-0.164,0.164v0.516
				c0,0.094,0.047,0.165,0.164,0.165h0.376c0.516,0,0.493,0.305,0.305,0.681c-0.094,0.187-2.041,3.027-2.395,3.613
				c-0.376-0.562-2.322-3.684-2.464-3.896c-0.094-0.141-0.07-0.398,0.352-0.398h0.353c0.141,0,0.164-0.071,0.164-0.165v-0.516
				c0-0.118-0.07-0.164-0.164-0.164c-0.164,0-1.761,0.069-2.276,0.069c-0.563,0-1.784-0.069-1.925-0.069s-0.188,0.069-0.188,0.141
				v0.516c0,0.141,0.048,0.188,0.166,0.188h0.328c0.188,0,0.609,0.046,0.844,0.28c0.376,0.354,3.24,4.554,3.451,4.977v0.845
				c0,1.385,0,2.229-0.024,2.44c-0.022,0.329-0.163,0.471-0.915,0.471h-0.352c-0.095,0-0.142,0.07-0.142,0.141v0.516
				c0,0.142,0.047,0.188,0.164,0.188c0.142,0,1.504-0.07,2.019-0.07c0.776,0,2.09,0.07,2.229,0.07c0.142,0,0.188-0.07,0.188-0.164
				v-0.564c0-0.069-0.047-0.116-0.164-0.116h-0.306c-0.422,0-0.797-0.024-0.845-0.517c-0.047-0.282-0.022-0.915-0.047-1.503V59.665z
				"/>
			<path fill-rule="evenodd" clip-rule="evenodd" fill="#0D3A59" d="M135.192,64.711c2.135,0,3.262-1.501,3.262-3.262
				c0-1.174-0.281-1.76-0.75-2.252c-0.588-0.611-1.455-0.869-2.534-1.269c-0.446-0.164-1.292-0.517-1.644-0.962
				c-0.258-0.306-0.375-0.799-0.375-1.15c0-0.422,0.375-1.431,1.666-1.431c0.681,0,1.197,0.234,1.549,0.634
				c0.493,0.562,0.681,1.383,0.822,1.666c0.023,0.07,0.068,0.117,0.139,0.093l0.424-0.093c0.07-0.024,0.095-0.07,0.095-0.142
				c-0.024-0.327-0.235-1.854-0.235-2.628c0-0.117-0.023-0.212-0.211-0.212s-0.259,0-0.306,0.07L137,53.939
				c-0.048,0.117-0.164,0.093-0.399-0.047c-0.281-0.141-0.774-0.305-1.666-0.305c-0.845,0-1.597,0.211-2.206,0.703
				c-0.517,0.446-1.009,1.174-1.009,1.971c0,1.15,0.281,1.902,0.821,2.419c0.704,0.634,1.83,1.057,2.3,1.22
				c1.244,0.47,2.159,1.056,2.159,2.396c0,1.007-1.126,1.595-1.878,1.595c-0.868,0-1.644-0.469-1.994-1.174
				c-0.424-0.774-0.424-1.268-0.424-1.596c0-0.094-0.093-0.141-0.188-0.165l-0.421-0.046c-0.095,0-0.141,0.07-0.165,0.164
				c-0.023,0.375-0.188,2.253-0.259,2.91c-0.022,0.116,0.048,0.211,0.188,0.258c0.188,0.047,0.306,0,0.353-0.117l0.071-0.188
				c0.045-0.188,0.187-0.164,0.351-0.046C133.175,64.312,133.996,64.711,135.192,64.711z"/>
			<path fill-rule="evenodd" clip-rule="evenodd" fill="#0D3A59" d="M152.146,54.596l2.489,0.048c0.234,0,0.609,0.094,0.891,0.353
				c0.399,0.374,1.527,1.689,1.573,1.76c0.07,0.117,0.163,0.117,0.211,0.093l0.376-0.163c0.047-0.024,0.047-0.07,0.023-0.165
				c-0.047-0.163-0.704-2.183-0.751-2.394c-0.048-0.282-0.095-0.328-0.14-0.328c-0.095,0-0.4,0.046-0.635,0.046l-5.258,0.023
				c-0.352,0-1.643-0.069-1.994-0.069c-0.095,0-0.118,0.069-0.118,0.117v0.562c0,0.117,0.023,0.165,0.095,0.165h0.233
				c0.939,0,1.081,0.094,1.151,0.587c0.023,0.234,0.046,1.76,0.046,3.004v1.455v3.544c0,0.328-0.07,0.423-1.173,0.423h-0.211
				c-0.118,0-0.164,0.047-0.164,0.141v0.54c0,0.094,0.022,0.164,0.141,0.164c0.28,0,1.571-0.07,1.994-0.07
				c4.929,0,6.173,0.07,6.336,0.07c0.095,0,0.213-0.118,0.26-0.234l0.845-2.488c0.023-0.071-0.023-0.142-0.07-0.165l-0.375-0.21
				c-0.071-0.047-0.188-0.024-0.306,0.141c-0.235,0.376-1.057,1.431-1.244,1.572c-0.799,0.633-1.455,0.656-2.487,0.656
				c-1.01,0-1.69-0.069-1.69-1.174c0-0.303-0.048-1.665-0.048-2.485v-0.799c0.235,0,1.058,0,1.761,0.163
				c0.61,0.143,0.752,0.517,0.869,1.104c0.023,0.094,0.07,0.094,0.141,0.094l0.494-0.049c0.07,0,0.115-0.022,0.115-0.117
				c-0.022-0.304-0.093-1.032-0.093-1.548c0-0.211,0-1.456,0.048-1.667c0.022-0.094-0.048-0.141-0.143-0.141l-0.517-0.023
				c-0.093,0-0.116,0.023-0.116,0.118c0,0.728-0.234,1.056-0.846,1.22c-0.188,0.048-1.572,0.117-1.714,0.117V54.596z"/>
			<path fill-rule="evenodd" clip-rule="evenodd" fill="#0D3A59" d="M158.5,54.525c0,0.07,0.047,0.118,0.117,0.118h0.423
				c0.985,0,0.985,0.188,0.985,0.539c0,0.212,0.023,2.44,0.023,2.651c0,0.282-0.046,4.108-0.258,5.163
				c-0.07,0.354-0.445,0.659-1.127,0.659h-0.306c-0.07,0-0.117,0.047-0.117,0.141v0.47c0,0.188,0.023,0.234,0.141,0.234
				c0.142,0,1.479-0.07,1.996-0.07c0.727,0,1.83,0.07,1.97,0.07c0.119,0,0.143-0.07,0.143-0.141v-0.517
				c0-0.117-0.023-0.188-0.118-0.188h-0.352c-0.705,0-1.032-0.234-1.128-1.08c-0.046-0.28-0.022-3.45-0.022-3.639
				c0-0.164,0.022-3.873,0.07-4.105h0.048c0.305,0.562,1.454,3.284,1.784,3.988c0.164,0.354,2.205,5.07,2.275,5.188
				c0.07,0.141,0.141,0.259,0.282,0.259c0.187,0,0.305-0.212,0.375-0.353c0.07-0.142,1.69-3.521,1.994-4.107
				c0.399-0.775,2.277-4.765,2.396-4.999h-0.071l0.117,0.024v4.599c0,0.234-0.023,3.403-0.046,3.755
				c0,0.212-0.165,0.471-0.635,0.471h-0.751c-0.093,0-0.141,0.047-0.141,0.141v0.47c0,0.164,0.048,0.234,0.141,0.234
				c0.165,0,1.62-0.07,2.206-0.07c0.822,0,2.136,0.07,2.324,0.07c0.117,0,0.164-0.07,0.164-0.164v-0.564
				c0-0.069-0.047-0.116-0.116-0.116h-0.775c-0.376,0-0.517-0.376-0.517-0.822c0-0.21-0.046-3.31-0.046-3.614
				c0-0.329,0.046-3.872,0.046-4.085c0.023-0.233,0.118-0.491,0.446-0.491h0.563c0.116,0,0.164-0.071,0.164-0.165v-0.492
				c0-0.118-0.022-0.188-0.118-0.188c-0.164,0-0.656,0.069-3.121,0.069c-0.235,0-0.353,0.071-0.376,0.235
				c-0.046,0.258-1.501,3.191-1.877,3.942c-0.424,0.892-1.572,3.24-1.76,3.685l-3.381-7.674c-0.094-0.188-0.21-0.258-0.398-0.258
				c-0.306,0-0.774,0.069-1.409,0.069c-0.656,0-1.972-0.069-2.111-0.069c-0.07,0-0.117,0.046-0.117,0.117V54.525z"/>
			<path fill="#0D3A59" d="M138.864,53.674c0.019-0.013,0.035-0.02,0.092-0.014c0.369,0.042,1.712,0.167,4.312,0.167h0.946
				c0.162,0,0.326-0.001,0.491-0.004c1.962-0.026,3.011-0.124,3.329-0.159c0.058-0.006,0.073,0,0.093,0.014
				c0.023,0.015,0.03,0.03,0.043,0.08c0.192,0.716,0.603,2.176,0.74,2.605c0.023,0.094,0.023,0.188-0.095,0.236l-0.426,0.166
				c-0.095,0.047-0.166-0.023-0.213-0.119c-0.309-0.614-0.805-1.372-1.396-1.822c-0.628-0.168-1.49-0.204-2.094-0.211v3.972
				c0,2.485,0,4.26,0.024,4.448c0.048,0.379,0.166,0.616,0.544,0.616h0.899c0.118,0,0.166,0.07,0.166,0.212v0.497
				c0,0.072-0.048,0.143-0.166,0.143c-0.165,0-1.634-0.07-2.413-0.07c-0.663,0-2.201,0.07-2.391,0.07c-0.143,0-0.19-0.07-0.19-0.213
				v-0.474c0-0.118,0.048-0.165,0.143-0.165h0.946c0.355,0,0.521-0.19,0.545-0.38c0.071-0.898,0.071-2.152,0.071-3.573v-5.088
				c-0.449,0-1.778-0.022-2.654,0.212c-0.592,0.451-1.089,1.209-1.396,1.822c-0.048,0.096-0.119,0.168-0.214,0.12l-0.425-0.167
				c-0.118-0.047-0.118-0.142-0.095-0.236c0.137-0.429,0.548-1.89,0.741-2.605C138.834,53.704,138.841,53.689,138.864,53.674z"/>
		</g>
	</g>
</g>
</svg>
