<?xml version="1.0" encoding="utf-8"?>
<!-- Generator: Adobe Illustrator 16.0.0, SVG Export Plug-In . SVG Version: 6.00 Build 0)  -->
<!DOCTYPE svg PUBLIC "-//W3C//DTD SVG 1.1//EN" "http://www.w3.org/Graphics/SVG/1.1/DTD/svg11.dtd">
<svg version="1.1" id="Layer_1" xmlns="http://www.w3.org/2000/svg" xmlns:xlink="http://www.w3.org/1999/xlink" x="0px" y="0px"
	 width="23.831px" height="24px" viewBox="0 0 23.831 24" enable-background="new 0 0 23.831 24" xml:space="preserve">
<path fill="#231F20" d="M14.508,0c-5.14,0-9.321,4.182-9.321,9.322c0,1.692,0.456,3.279,1.247,4.648L0,20.405L3.595,24l6.48-6.479
	c1.319,0.716,2.83,1.123,4.433,1.123c5.141,0,9.322-4.182,9.322-9.321C23.831,4.182,19.649,0,14.508,0z M14.508,16.178
	c-3.78,0-6.856-3.076-6.856-6.856c0-3.781,3.076-6.856,6.856-6.856c3.781,0,6.856,3.076,6.856,6.856
	C21.365,13.102,18.29,16.178,14.508,16.178z"/>
</svg>
